<?xml version="1.0" encoding="UTF-8" standalone="no"?>
<svg
   xmlns:dc="http://purl.org/dc/elements/1.1/"
   xmlns:cc="http://creativecommons.org/ns#"
   xmlns:rdf="http://www.w3.org/1999/02/22-rdf-syntax-ns#"
   xmlns:svg="http://www.w3.org/2000/svg"
   xmlns="http://www.w3.org/2000/svg"
   xmlns:sodipodi="http://sodipodi.sourceforge.net/DTD/sodipodi-0.dtd"
   xmlns:inkscape="http://www.inkscape.org/namespaces/inkscape"
   version="1.1"
   id="svg867"
   width="1180"
   height="739"
   viewBox="0 0 1180 739"
   sodipodi:docname="dan.svg"
   inkscape:version="1.0.1 (3bc2e813f5, 2020-09-07, custom)">
  <metadata
     id="metadata873">
    <rdf:RDF>
      <cc:Work
         rdf:about="">
        <dc:format>image/svg+xml</dc:format>
        <dc:type
           rdf:resource="http://purl.org/dc/dcmitype/StillImage" />
        <dc:title></dc:title>
      </cc:Work>
    </rdf:RDF>
  </metadata>
  <defs
     id="defs871" />
  <sodipodi:namedview
     pagecolor="#ffffff"
     bordercolor="#666666"
     borderopacity="1"
     objecttolerance="10"
     gridtolerance="10"
     guidetolerance="10"
     inkscape:pageopacity="0"
     inkscape:pageshadow="2"
     inkscape:window-width="2560"
     inkscape:window-height="1421"
     id="namedview869"
     showgrid="false"
     inkscape:zoom="0.8173675"
     inkscape:cx="777.14467"
     inkscape:cy="412.33022"
     inkscape:window-x="0"
     inkscape:window-y="19"
     inkscape:window-maximized="1"
     inkscape:current-layer="g5951" />
  <g
     inkscape:groupmode="layer"
     inkscape:label="Image"
     id="g875">
    <g
       id="g5951"
       transform="translate(-0.81999108,-0.48472835)">
      <path
         style="fill:#deb260"
         d="m 311.81998,505.04404 c -8.1695,-1.83623 -29.31414,-10.41918 -39.29449,-15.95027 -3.41303,-1.8915 -11.60551,-5.55935 -18.20551,-8.15077 -16.81921,-6.6039 -23.7639,-10.01838 -29.33829,-14.42468 -7.16636,-5.66468 -7.57958,-7.30364 -6.83222,-27.09841 l 0.63826,-16.90517 -2.73388,-0.57775 c -1.50363,-0.31776 -3.85887,-0.7814 -5.23387,-1.0303 -10.93228,-1.97893 -15.59424,-4.01695 -20.5,-8.96177 -10.89027,-10.97696 -13.8605,-21.38173 -15.0192,-52.6125 -0.56975,-15.35639 -0.44315,-17.97552 0.97339,-20.13743 2.28181,-3.48248 13.12072,-10.26837 21.22338,-13.28727 3.75233,-1.39805 10.083,-4.20265 14.06814,-6.23245 l 7.24571,-3.69054 0.0114,-6 c 0.006,-3.3 0.30172,-9.0744 0.65655,-12.832 l 0.64515,-6.83201 4.59774,-2.34982 c 2.52876,-1.2924 8.19774,-4.05295 12.59774,-6.13456 4.4,-2.08161 11.15,-5.42169 15,-7.42242 3.85,-2.00072 11.43107,-5.34164 16.84683,-7.42427 l 9.84684,-3.7866 4.19808,-6.60916 c 9.68326,-15.24462 9.84971,-15.6577 9.45479,-23.46465 -0.38335,-7.57823 -1.66152,-10.1016 -9.44409,-18.64451 -1.75366,-1.925 -5.93663,-6.52615 -9.29547,-10.22478 l -6.10698,-6.72477 v -8.02523 c 0,-7.35855 0.16614,-8.02522 2,-8.02522 1.8081,0 2,0.66667 2,6.94791 v 6.9479 l 10.65953,11.8021 c 12.78227,14.15237 14.28884,17.05893 14.31851,27.62402 0.0225,8.00963 -1.45641,12.0468 -7.1663,19.56293 -3.09829,4.07839 -2.43111,5.33713 1.93826,3.65683 2.0625,-0.79316 7.04393,-2.41789 11.06985,-3.61052 6.06178,-1.79572 7.48089,-2.62066 8.25685,-4.79979 0.51535,-1.44726 1.56817,-3.75683 2.3396,-5.13238 2.00008,-3.56639 3.75955,-12.26166 4.28118,-21.1575 l 0.44907,-7.6585 -5.2273,-5.8415 c -2.87501,-3.21283 -5.99701,-6.58972 -6.93777,-7.50421 -4.56101,-4.43367 -6.08405,-8.52731 -5.77845,-15.53132 0.26847,-6.15285 0.5091,-6.83614 2.50748,-7.12035 2.09143,-0.29744 2.17873,-0.0461 1.62061,4.66641 -0.32445,2.73942 -0.29998,6.13591 0.0544,7.54774 0.65413,2.60625 6.21666,9.66507 13.65009,17.32186 l 4.09847,4.22162 -0.43962,9.77838 c -0.50696,11.27614 -2.31666,21.08078 -4.31116,23.35711 -3.47518,3.96625 -1.59445,4.21663 18.11673,2.41188 2.2,-0.20143 5.198,-0.39423 6.66222,-0.42843 5.8378,-0.13637 18.83775,-24.39865 18.83775,-35.15764 0,-5.71028 -2.80292,-9.57412 -9.8554,-13.58574 -2.55453,-1.45307 -6.16634,-4.03175 -8.02623,-5.73038 -4.0405,-3.69016 -9.75357,-15.35323 -8.25483,-16.85197 1.74561,-1.74561 3.69954,-0.0904 5.17665,4.38531 1.69988,5.1507 7.37955,11.04289 15.30551,15.87823 7.71225,4.70496 9.6543,7.99071 9.6543,16.33411 0,3.85857 -0.67266,8.1691 -1.6201,10.38196 -5.02886,11.74544 -7.15645,15.96222 -9.6299,19.08595 -3.30009,4.1677 -3.50146,6.19798 -0.61473,6.19798 3.99545,0 27.34842,5.15783 31.36473,6.92734 5.84911,2.577 13.10818,10.53944 16.93202,18.57266 5.26929,11.06987 5.3655,14.54586 0.55354,20 -1.62204,1.83851 -1.6566,2.64597 -0.42802,10 2.01863,12.08319 1.82189,25.43197 -0.47578,32.28155 -1.05503,3.14515 -2.41986,8.64345 -3.03296,12.21845 -0.6131,3.575 -1.99187,10.34652 -3.06393,15.04782 -4.85966,21.31105 -8.06669,53.3322 -6.83032,68.19858 1.93236,23.23509 0.31349,41.2536 -3.70642,41.2536 -4.12357,0 -4.95939,-4.5323 -4.79473,-26 0.12698,-16.55547 0.60876,-22.66951 2.79737,-35.5 1.45418,-8.525 3.31027,-19.55 4.12465,-24.5 1.40523,-8.54138 2.40086,-13.63223 5.89772,-30.15615 1.25791,-5.94411 1.3594,-10.51713 0.59921,-27 -0.50335,-10.91412 -1.29779,-20.85585 -1.76543,-22.09273 -0.83821,-2.21708 -1.05499,-2.15007 -15.32858,4.73873 -7.96309,3.84319 -15.17555,6.99269 -16.0277,6.99888 -0.85215,0.006 -5.80215,1.36767 -11,3.0255 -12.46489,3.9756 -25.829,5.97264 -40.01698,5.97987 -12.79826,0.007 -20.70927,-1.11695 -28.82289,-4.09328 -7.00086,-2.56813 -18.07577,-9.17151 -21.73094,-12.957 -7.69342,-7.96772 -13.47331,-10.88086 -24.62983,-12.41373 l -4.75,-0.65264 v 7.06128 7.06127 h 5.92857 c 6.55991,0 9.07143,1.52617 9.07143,5.51241 0,3.15659 -1.38256,3.88587 -8.5,4.48366 -5.87289,0.49325 -6.00647,0.57057 -6.30559,3.64975 -0.16807,1.7302 0.0816,4.6552 0.55484,6.5 0.79541,3.10074 1.3254,3.46752 7.01432,4.85418 10.68859,2.60532 10.61549,5.74152 -0.1861,7.98392 l -5.15952,1.07111 -1.21894,14.22249 c -1.82712,21.3188 -2.05665,19.9632 3.79905,22.43716 8.69077,3.67175 8.05871,8.71908 -1.11197,8.8796 -5.10458,0.0893 -5.41911,0.24614 -6.01778,3 -0.34742,1.59814 -0.68492,6.11197 -0.75,10.03072 -0.11635,7.00676 -0.0727,7.13434 2.63169,7.68791 1.5125,0.3096 3.65,1.23555 4.75,2.05768 2.42867,1.81515 1.18294,3.52826 -3.79408,5.21758 l -3.20592,1.08816 -0.27427,16.05627 -0.27426,16.05627 2.64034,3.13787 c 3.70565,4.40391 13.43485,11.10441 23.2631,16.02128 11.37745,5.69191 27.88781,12.6528 32.14509,13.55261 1.925,0.40686 9.06905,2.69695 15.87566,5.08909 13.32431,4.68273 20.92186,6.02074 39.55238,6.96558 13.73206,0.69642 18.01813,-0.15872 24.38836,-4.86582 3.36703,-2.48797 5.01662,-4.81774 7.5,-10.5925 1.75098,-4.07166 3.9711,-7.89436 4.9336,-8.49489 4.60252,-2.87161 7.32112,5.01402 4.31702,12.52202 -3.53056,8.82373 -6.00819,11.45952 -13.75413,14.63213 -7.12402,2.91787 -7.85527,3.00871 -28.31289,3.51725 -14.78536,0.36754 -22.62764,0.15619 -26.5,-0.71418 z M 221.23861,401.25526 c 0.44027,-6.3924 0.33948,-10.35116 -0.26872,-10.55389 -0.53529,-0.17843 -5.13064,-3.09118 -10.21187,-6.47278 -11.80449,-7.85597 -15.33762,-12.78041 -14.60517,-20.35655 1.02156,-10.56666 7.99229,-19.50351 18.16713,-23.29125 4.81886,-1.7939 5.01134,-2.01464 5.31309,-6.0931 0.53025,-7.16697 -0.0888,-7.60019 -6.0674,-4.24599 -2.88513,1.61865 -8.35006,3.96946 -12.1443,5.224 -3.79423,1.25455 -8.46952,3.34705 -10.38954,4.65001 -1.92002,1.30296 -3.86659,2.36902 -4.32572,2.36902 -0.45912,0 -1.57472,1.4309 -2.47909,3.17977 -1.38342,2.67524 -1.56311,5.49164 -1.13247,17.75 0.71367,20.31448 4.22192,31.09664 13.08872,40.2265 3.81522,3.9284 12.99696,7.10991 22.24376,7.70755 1.97209,0.12746 2.15217,-0.51899 2.81158,-10.09329 z m -1.20407,-50.95597 c -1.48134,-1.48134 -9.39403,3.53045 -11.35922,7.19476 -2.10643,3.92766 -2.38214,9.7277 -0.57354,12.06494 0.67001,0.86585 3.6932,3.27182 6.7182,5.3466 l 5.5,3.77234 0.27933,-13.76727 c 0.15363,-7.572 -0.10052,-14.14712 -0.56477,-14.61137 z m 41.78544,-51.37358 c 0,-0.79254 -0.65383,-1.44098 -1.45295,-1.44098 -2.47219,0 -6.54705,-2.2531 -6.54705,-3.62005 0,-2.10424 4.96548,-6.09633 9.90858,-7.96618 2.52528,-0.95526 5.49142,-2.30848 6.59142,-3.00716 1.88708,-1.19862 8.58211,-3.54557 23.5,-8.23795 4.98275,-1.56731 11.75201,-2.33299 29,-3.28023 l 22.5,-1.23566 9,2.83002 c 12.68409,3.98848 17.35102,6.57519 22.45877,12.44808 5.75401,6.61596 6.00772,7.05042 6.02592,10.31913 0.0179,3.22495 -0.21036,3.16006 4.37606,1.24374 3.78345,-1.58083 7.63925,-7.4149 7.63925,-11.55868 0,-6.81806 -10.80423,-20.31399 -19.12966,-23.89549 -6.38645,-2.74738 -19.72557,-5.21314 -26.18153,-4.83971 l -5.18881,0.30014 -0.31037,3.75 c -0.23943,2.89293 -0.73987,3.75 -2.18963,3.75 -1.44976,0 -1.9502,-0.85707 -2.18963,-3.75 l -0.31037,-3.75 -7,0.12456 c -8.68062,0.15446 -18.01041,2.02871 -19.99933,4.01763 -0.82537,0.82537 -1.50067,2.59352 -1.50067,3.92924 0,1.7619 -0.54902,2.42857 -2,2.42857 -1.27273,0 -2,-0.66667 -2,-1.83333 0,-2.82967 -0.87366,-3.1174 -4.66087,-1.53501 -1.92376,0.8038 -7.39956,2.49459 -12.16844,3.75732 l -8.67069,2.29586 -0.31037,3.65758 c -0.24152,2.84629 -0.74059,3.65758 -2.25,3.65758 -1.38977,0 -1.93963,-0.69199 -1.93963,-2.44098 0,-1.34254 -0.366,-2.66718 -0.81332,-2.94365 -1.42092,-0.87817 -13.27298,3.97987 -26.04743,10.67658 l -12.36075,6.47984 3.86075,1.23596 c 5.06664,1.62201 11.03674,4.82002 15.28188,8.18608 3.48048,2.75974 5.07887,2.83752 5.07887,0.24715 z m 303.32289,179.7989 c -2.12156,-3.69661 -4.97674,-4.2143 -23.71246,-4.29949 -7.21074,-0.0328 -15.13543,-0.45818 -17.61043,-0.94532 -13.14875,-2.58799 -12.9612,-2.49736 -19.85113,-9.59357 -10.58309,-10.89996 -10.2613,-9.14543 -11.26118,-61.4015 -0.79573,-41.58725 -1.22378,-48.54939 -3.78112,-61.5 -0.54304,-2.75 -1.01417,-8.68678 -1.04696,-13.19284 -0.0488,-6.70064 0.34206,-8.88626 2.14574,-12 1.21294,-2.09394 2.62599,-4.09769 3.14012,-4.45278 0.51412,-0.35509 2.10922,-3.05509 3.54465,-6 2.59656,-5.32705 2.63795,-5.35764 8.10988,-5.99343 3.025,-0.35148 9.1,-1.42656 13.5,-2.38907 5.06102,-1.1071 15.53115,-2.04119 28.5,-2.5426 11.275,-0.43592 27.7,-1.27152 36.5,-1.85689 8.8,-0.58537 26.80525,-1.35424 40.01166,-1.70859 28.85872,-0.77435 32.66228,-0.0874 40.59383,7.33164 l 4.89451,4.57824 0.0142,8.61316 c 0.0142,8.59374 2.31787,19.84024 6.88522,33.61316 1.93023,5.82064 4.86853,15.96591 9.70236,33.5 1.28882,4.675 3.52667,12.775 4.97301,18 2.16246,7.81206 2.71813,12.34284 3.12737,25.5 l 0.49768,16 -3.64776,4.21485 c -4.70584,5.43742 -14.28179,12.70909 -18.64166,14.15588 -1.87574,0.62244 -4.98543,2.11896 -6.91043,3.32559 -3.83361,2.40299 -17.73576,8.49308 -22.5,9.85653 -16.27749,4.65836 -20.24583,5.25653 -35.5,5.35108 -8.525,0.0528 -16.73074,-0.28852 -18.23497,-0.75857 -2.35652,-0.73637 -2.86101,-0.52312 -3.64582,1.5411 -1.48685,3.91072 -3.76423,5.05518 -11.10442,5.58037 -6.89943,0.49365 -6.97011,0.4731 -8.6919,-2.52695 z m 12.52789,-2.33771 c 1.73207,-0.6038 3.14922,-1.54683 3.14922,-2.09562 0,-0.5488 0.84282,-2.19228 1.87294,-3.65218 1.03011,-1.4599 2.13334,-4.22937 2.45162,-6.15437 0.31827,-1.925 1.52875,-8 2.68994,-13.5 3.64782,-17.27787 4.13533,-23.39024 3.70875,-46.5 -0.34226,-18.54226 -0.75022,-23.5554 -2.31928,-28.5 -2.60202,-8.19979 -2.78664,-33.74141 -0.27164,-37.57945 2.1329,-3.25491 12.3038,-9.49022 19.54284,-11.98082 3.15119,-1.08417 6.76616,-2.94516 8.03326,-4.13554 2.8557,-2.68279 8.95171,-3.61527 24.79157,-3.79228 8.21797,-0.0918 13.73343,-0.67601 17.5,-1.85352 l 5.5,-1.71943 0.3058,-4.74426 c 0.28492,-4.42023 0.0236,-5.01537 -3.82531,-8.71344 -6.89793,-6.62753 -11.36817,-7.40079 -37.98049,-6.56987 -12.375,0.38638 -29.025,1.12767 -37,1.64729 -7.975,0.51963 -23.95,1.19191 -35.5,1.49396 -11.55,0.30205 -21.9,0.91946 -23,1.37201 -2.81021,1.15615 -18.43718,4.08557 -21.7647,4.07999 -3.787,-0.006 -6.72656,4.89743 -6.73156,11.22958 -0.003,3.78459 0.56252,5.36798 2.81921,7.89365 l 2.82295,3.15943 16.42705,0.78615 c 17.39738,0.83258 20.34442,1.37626 25.92705,4.78315 1.925,1.17476 4.42422,2.13761 5.55383,2.13966 2.47741,0.005 7.85503,5.35674 9.54881,9.50374 2.08893,5.11445 3.19842,22.85374 3.22103,51.5 0.0158,20.00904 -0.31606,28.12924 -1.21828,29.81 -0.80098,1.49217 -1.44717,9.33892 -1.82521,22.16351 l -0.58524,19.85352 2.98639,3.83648 c 1.64251,2.11007 3.27202,4.62399 3.62114,5.58649 0.73784,2.03419 4.78991,2.31096 9.54831,0.65217 z m 323.64922,-17.0157 c -19.51925,-1.83075 -27.45366,-3.12897 -39.47987,-6.45965 -35.31352,-9.78015 -35.76228,-9.97018 -47.41586,-20.07824 -9.43444,-8.18322 -15.75135,-13.13659 -20.21132,-15.84858 -5.47673,-3.33025 -20.07475,-17.39162 -24.05483,-23.17052 -3.38854,-4.92 -3.63392,-5.70748 -2.61751,-8.40024 0.78254,-2.07319 0.8328,-4.85409 0.16627,-9.20027 -1.39382,-9.08866 -2.73295,-23.12534 -2.27858,-23.88396 0.50791,-0.84801 11.28665,1.92423 13.8917,3.57288 1.1,0.69615 3.35,1.58508 5,1.97539 3.35426,0.79346 17.59895,6.65978 24.5,10.08972 2.475,1.23011 7.2,3.25774 10.5,4.50584 3.3,1.2481 9.6,3.9688 14,6.046 4.4,2.07721 10.475,4.54244 13.5,5.4783 3.025,0.93586 8.2,2.60736 11.5,3.71446 3.3,1.10709 9.15,2.79924 13,3.76032 3.85,0.96108 9.04295,2.65045 11.53988,3.75415 2.49693,1.10369 6.0607,2.34075 7.91949,2.74901 1.85878,0.40825 6.56583,2.10027 10.46012,3.76003 3.89428,1.65977 9.55551,3.36247 12.58051,3.78379 3.025,0.42133 8.2,1.25167 11.5,1.8452 7.31562,1.31578 41.13396,3.08716 59.29966,3.10606 9.92108,0.0103 14.04624,0.39991 16.23856,1.53359 4.1163,2.12864 17.6209,4.78263 20.5698,4.04249 2.7635,-0.69359 6.3826,-5.93446 6.3883,-9.25097 0,-2.48271 -0.2159,-2.52754 -20.4963,-4.17445 -13.96146,-1.13376 -26.58543,-3.32006 -31.52427,-5.45957 -5.3675,-2.3252 -15.31461,-5.16535 -28.47575,-8.13054 -6.6,-1.48698 -13.35,-3.17836 -15,-3.75863 -1.65,-0.58027 -7.5,-1.64315 -13,-2.36195 C 908.6232,381.51287 898.2487,379.1626 893.22847,377 c -1.70033,-0.73246 -5.75033,-1.65357 -9,-2.0469 -3.24967,-0.39334 -6.49494,-1.1846 -7.21171,-1.75837 -1.55636,-1.24586 -6.35175,-2.21375 -23.69678,-4.7829 -3.85,-0.57027 -8.575,-1.63016 -10.5,-2.35533 -4.4517,-1.677 -12.42838,-3.57177 -15.03655,-3.57177 -1.89929,0 -10.52881,-4.23183 -23.09046,-11.32335 -3.09486,-1.74716 -7.64185,-5.03803 -10.10443,-7.31306 -2.46257,-2.27502 -5.55542,-4.42828 -6.87298,-4.78501 -1.31757,-0.35672 -3.97058,-1.08637 -5.89558,-1.62144 -1.925,-0.53506 -6.19564,-1.54119 -9.49032,-2.23584 -7.23615,-1.52567 -7.64129,-2.56978 -4.04515,-10.42479 5.15794,-11.26643 13.45646,-21.69055 19.83207,-24.9119 1.76187,-0.89021 4.1034,-2.42257 5.2034,-3.40524 1.1,-0.98268 6.05,-3.14685 11,-4.80926 18.92195,-6.35476 17.21276,-6.17031 57.15391,-6.16768 56.49273,0.004 62.11364,0.66623 90.84609,10.70765 21.72929,7.59395 35.24147,15.13784 44.66687,24.93766 14.36335,14.93393 18.08085,19.23242 19.92215,23.03605 1.1195,2.31256 2.9095,5.31588 3.9778,6.67405 1.0684,1.35817 3.8529,6.44577 6.1878,11.30578 l 4.2454,8.83638 v 19 19 l -5.6211,13 c -3.0916,7.15 -5.9357,14.01634 -6.3201,15.25854 -1.5048,4.86219 -29.19294,18.78503 -43.30447,21.77541 -7.62529,1.61588 -58.71582,1.85681 -74.75435,0.35252 z m 35.25,-117.88156 c 1.7875,-0.66031 3.25,-1.84947 3.25,-2.64257 0,-2.06841 -3.55607,-8.74902 -5.52838,-10.38589 -0.921,-0.76437 -3.23702,-3.83229 -5.14671,-6.81761 l -3.47215,-5.42786 -8.77612,0.5004 c -7.49266,0.42721 -9.71212,0.9953 -15.17638,3.8845 -6.17302,3.26397 -6.41108,3.53307 -6.70508,7.5793 -0.23657,3.25583 0.17394,4.63662 1.83333,6.16667 1.17599,1.08431 3.35464,3.11296 4.84145,4.50811 1.48681,1.39514 3.81181,3.00909 5.16666,3.58655 3.18424,1.35717 25.38839,0.64606 29.71338,-0.9516 z"
         id="path5965" />
      <path
         style="fill:#000000"
         d="m 311.81998,505.04404 c -8.1695,-1.83623 -29.31414,-10.41918 -39.29449,-15.95027 -3.41303,-1.8915 -11.60551,-5.55935 -18.20551,-8.15077 -16.81921,-6.6039 -23.7639,-10.01838 -29.33829,-14.42468 -7.16636,-5.66468 -7.57958,-7.30364 -6.83222,-27.09841 l 0.63826,-16.90517 -2.73388,-0.57775 c -1.50363,-0.31776 -3.85887,-0.7814 -5.23387,-1.0303 -10.93228,-1.97893 -15.59424,-4.01695 -20.5,-8.96177 -10.89027,-10.97696 -13.8605,-21.38173 -15.0192,-52.6125 -0.56975,-15.35639 -0.44315,-17.97552 0.97339,-20.13743 2.28181,-3.48248 13.12072,-10.26837 21.22338,-13.28727 3.75233,-1.39805 10.083,-4.20265 14.06814,-6.23245 l 7.24571,-3.69054 0.0114,-6 c 0.006,-3.3 0.30172,-9.0744 0.65655,-12.832 l 0.64515,-6.83201 4.59774,-2.34982 c 2.52876,-1.2924 8.19774,-4.05295 12.59774,-6.13456 4.4,-2.08161 11.15,-5.42169 15,-7.42242 3.85,-2.00072 11.43107,-5.34164 16.84683,-7.42427 l 9.84684,-3.7866 4.19808,-6.60916 c 9.68326,-15.24462 9.84971,-15.6577 9.45479,-23.46465 -0.38335,-7.57823 -1.66152,-10.1016 -9.44409,-18.64451 -1.75366,-1.925 -5.93663,-6.52615 -9.29547,-10.22478 l -6.10698,-6.72477 v -8.02523 c 0,-7.35855 0.16614,-8.02522 2,-8.02522 1.8081,0 2,0.66667 2,6.94791 v 6.9479 l 10.65953,11.8021 c 12.78227,14.15237 14.28884,17.05893 14.31851,27.62402 0.0225,8.00963 -1.45641,12.0468 -7.1663,19.56293 -3.09829,4.07839 -2.43111,5.33713 1.93826,3.65683 2.0625,-0.79316 7.04393,-2.41789 11.06985,-3.61052 6.06178,-1.79572 7.48089,-2.62066 8.25685,-4.79979 0.51535,-1.44726 1.56817,-3.75683 2.3396,-5.13238 2.00008,-3.56639 3.75955,-12.26166 4.28118,-21.1575 l 0.44907,-7.6585 -5.2273,-5.8415 c -2.87501,-3.21283 -5.99701,-6.58972 -6.93777,-7.50421 -4.56101,-4.43367 -6.08405,-8.52731 -5.77845,-15.53132 0.26847,-6.15285 0.5091,-6.83614 2.50748,-7.12035 2.09143,-0.29744 2.17873,-0.0461 1.62061,4.66641 -0.32445,2.73942 -0.29998,6.13591 0.0544,7.54774 0.65413,2.60625 6.21666,9.66507 13.65009,17.32186 l 4.09847,4.22162 -0.43962,9.77838 c -0.50696,11.27614 -2.31666,21.08078 -4.31116,23.35711 -3.47518,3.96625 -1.59445,4.21663 18.11673,2.41188 2.2,-0.20143 5.198,-0.39423 6.66222,-0.42843 5.8378,-0.13637 18.83775,-24.39865 18.83775,-35.15764 0,-5.71028 -2.80292,-9.57412 -9.8554,-13.58574 -2.55453,-1.45307 -6.16634,-4.03175 -8.02623,-5.73038 -4.0405,-3.69016 -9.75357,-15.35323 -8.25483,-16.85197 1.74561,-1.74561 3.69954,-0.0904 5.17665,4.38531 1.69988,5.1507 7.37955,11.04289 15.30551,15.87823 7.71225,4.70496 9.6543,7.99071 9.6543,16.33411 0,3.85857 -0.67266,8.1691 -1.6201,10.38196 -5.02886,11.74544 -7.15645,15.96222 -9.6299,19.08595 -3.30009,4.1677 -3.50146,6.19798 -0.61473,6.19798 3.99545,0 27.34842,5.15783 31.36473,6.92734 5.84911,2.577 13.10818,10.53944 16.93202,18.57266 5.26929,11.06987 5.3655,14.54586 0.55354,20 -1.62204,1.83851 -1.6566,2.64597 -0.42802,10 2.01863,12.08319 1.82189,25.43197 -0.47578,32.28155 -1.05503,3.14515 -2.41986,8.64345 -3.03296,12.21845 -0.6131,3.575 -1.99187,10.34652 -3.06393,15.04782 -4.85966,21.31105 -8.06669,53.3322 -6.83032,68.19858 1.93236,23.23509 0.31349,41.2536 -3.70642,41.2536 -4.12357,0 -4.95939,-4.5323 -4.79473,-26 0.12698,-16.55547 0.60876,-22.66951 2.79737,-35.5 1.45418,-8.525 3.31027,-19.55 4.12465,-24.5 1.40523,-8.54138 2.40086,-13.63223 5.89772,-30.15615 1.25791,-5.94411 1.3594,-10.51713 0.59921,-27 -0.50335,-10.91412 -1.29779,-20.85585 -1.76543,-22.09273 -0.83821,-2.21708 -1.05499,-2.15007 -15.32858,4.73873 -7.96309,3.84319 -15.17555,6.99269 -16.0277,6.99888 -0.85215,0.006 -5.80215,1.36767 -11,3.0255 -12.46489,3.9756 -25.829,5.97264 -40.01698,5.97987 -12.79826,0.007 -20.70927,-1.11695 -28.82289,-4.09328 -7.00086,-2.56813 -18.07577,-9.17151 -21.73094,-12.957 -7.69342,-7.96772 -13.47331,-10.88086 -24.62983,-12.41373 l -4.75,-0.65264 v 7.06128 7.06127 h 5.92857 c 6.55991,0 9.07143,1.52617 9.07143,5.51241 0,3.15659 -1.38256,3.88587 -8.5,4.48366 -5.87289,0.49325 -6.00647,0.57057 -6.30559,3.64975 -0.16807,1.7302 0.0816,4.6552 0.55484,6.5 0.79541,3.10074 1.3254,3.46752 7.01432,4.85418 10.68859,2.60532 10.61549,5.74152 -0.1861,7.98392 l -5.15952,1.07111 -1.21894,14.22249 c -1.82712,21.3188 -2.05665,19.9632 3.79905,22.43716 8.69077,3.67175 8.05871,8.71908 -1.11197,8.8796 -5.10458,0.0893 -5.41911,0.24614 -6.01778,3 -0.34742,1.59814 -0.68492,6.11197 -0.75,10.03072 -0.11635,7.00676 -0.0727,7.13434 2.63169,7.68791 1.5125,0.3096 3.65,1.23555 4.75,2.05768 2.42867,1.81515 1.18294,3.52826 -3.79408,5.21758 l -3.20592,1.08816 -0.27427,16.05627 -0.27426,16.05627 2.64034,3.13787 c 3.70565,4.40391 13.43485,11.10441 23.2631,16.02128 11.37745,5.69191 27.88781,12.6528 32.14509,13.55261 1.925,0.40686 9.06905,2.69695 15.87566,5.08909 13.32431,4.68273 20.92186,6.02074 39.55238,6.96558 13.73206,0.69642 18.01813,-0.15872 24.38836,-4.86582 3.36703,-2.48797 5.01662,-4.81774 7.5,-10.5925 1.75098,-4.07166 3.9711,-7.89436 4.9336,-8.49489 4.60252,-2.87161 7.32112,5.01402 4.31702,12.52202 -3.53056,8.82373 -6.00819,11.45952 -13.75413,14.63213 -7.12402,2.91787 -7.85527,3.00871 -28.31289,3.51725 -14.78536,0.36754 -22.62764,0.15619 -26.5,-0.71418 z M 221.23861,401.25526 c 0.44027,-6.3924 0.33948,-10.35116 -0.26872,-10.55389 -0.53529,-0.17843 -5.13064,-3.09118 -10.21187,-6.47278 -11.80449,-7.85597 -15.33762,-12.78041 -14.60517,-20.35655 1.02156,-10.56666 7.99229,-19.50351 18.16713,-23.29125 4.81886,-1.7939 5.01134,-2.01464 5.31309,-6.0931 0.53025,-7.16697 -0.0888,-7.60019 -6.0674,-4.24599 -2.88513,1.61865 -8.35006,3.96946 -12.1443,5.224 -3.79423,1.25455 -8.46952,3.34705 -10.38954,4.65001 -1.92002,1.30296 -3.86659,2.36902 -4.32572,2.36902 -0.45912,0 -1.57472,1.4309 -2.47909,3.17977 -1.38342,2.67524 -1.56311,5.49164 -1.13247,17.75 0.71367,20.31448 4.22192,31.09664 13.08872,40.2265 3.81522,3.9284 12.99696,7.10991 22.24376,7.70755 1.97209,0.12746 2.15217,-0.51899 2.81158,-10.09329 z m -1.20407,-50.95597 c -1.48134,-1.48134 -9.39403,3.53045 -11.35922,7.19476 -2.10643,3.92766 -2.38214,9.7277 -0.57354,12.06494 0.67001,0.86585 3.6932,3.27182 6.7182,5.3466 l 5.5,3.77234 0.27933,-13.76727 c 0.15363,-7.572 -0.10052,-14.14712 -0.56477,-14.61137 z m 87.78544,-29.81745 c -1.925,-0.4379 -7.325,-1.29588 -12,-1.90661 -4.675,-0.61073 -9.625,-1.34004 -11,-1.62068 -1.375,-0.28064 -0.81394,0.14979 1.2468,0.95651 3.40413,1.33261 16.55395,3.26088 22.7532,3.33648 1.77112,0.0216 1.47956,-0.20164 -1,-0.7657 z m 25.72917,-5.60128 c -0.33229,-0.33229 -1.1948,-0.36781 -1.91667,-0.0789 -0.79773,0.31922 -0.56078,0.55618 0.60417,0.60416 1.05416,0.0434 1.64479,-0.19293 1.3125,-0.52522 z m 29.77083,-4.39583 c 2.85123,-1.45364 3.34903,-2 1.82223,-2 -1.15537,0 -3.16301,0.88503 -4.46145,1.96673 -3.02998,2.52423 -2.26556,2.53387 2.63922,0.0333 z m -99.8639,-12.31374 c -0.46076,-1.83584 -1.50806,-2.62726 -4.12678,-3.11853 -1.93013,-0.3621 -3.50932,-1.01822 -3.50932,-1.45806 0,-3.15979 17.20552,-10.87521 39,-17.48864 5.51627,-1.67389 29.91599,-3.61061 45.57463,-3.61749 6.66621,-0.003 9.79273,0.60254 17.92472,3.47118 5.41755,1.91109 10.31146,3.93609 10.87537,4.5 1.31733,1.31733 2.93571,1.33658 2.12528,0.0253 -1.13875,-1.84254 0.1283,-1.02533 2.57569,1.66125 1.33337,1.46369 1.86181,2.33713 1.17431,1.94098 -0.6875,-0.39614 -1.25,-0.33198 -1.25,0.14259 0,1.12225 6.49741,7.42505 7.06575,6.85411 0.23884,-0.23993 0.29912,1.88966 0.13395,4.73242 -0.16516,2.84276 0.0598,4.68701 0.5,4.09834 0.44017,-0.58867 2.6003,-1.76809 4.8003,-2.62093 4.31886,-1.67423 8.45348,-7.35867 8.48355,-11.66353 0.0487,-6.97374 -10.64745,-20.46379 -19.11321,-24.10566 -6.38645,-2.74738 -19.72557,-5.21314 -26.18153,-4.83971 l -5.18881,0.30012 -0.31037,3.75 c -0.23943,2.89293 -0.73987,3.75 -2.18963,3.75 -1.44976,0 -1.9502,-0.85707 -2.18963,-3.75 l -0.31037,-3.75 -7,0.12456 c -8.68062,0.15446 -18.01041,2.02871 -19.99933,4.01763 -0.82537,0.82537 -1.50067,2.59352 -1.50067,3.92924 0,1.7619 -0.54902,2.42857 -2,2.42857 -1.27273,0 -2,-0.66667 -2,-1.83333 0,-2.82967 -0.87366,-3.1174 -4.66087,-1.53501 -1.92376,0.8038 -7.39956,2.49459 -12.16844,3.75732 l -8.67069,2.29586 -0.31037,3.65758 c -0.24152,2.84629 -0.74059,3.65758 -2.25,3.65758 -1.38977,0 -1.93963,-0.69199 -1.93963,-2.44098 0,-1.34254 -0.366,-2.66718 -0.81332,-2.94365 -1.42092,-0.87817 -13.27298,3.97987 -26.04743,10.67658 l -12.36075,6.47984 3.86075,1.22392 c 2.12341,0.67315 5.38828,2.09769 7.25526,3.16564 1.86698,1.06795 4.02785,1.69869 4.80194,1.40164 0.77408,-0.29704 1.15474,-0.13123 0.8459,0.36848 -0.30884,0.49971 0.90529,2.06418 2.69806,3.4766 3.05217,2.40462 3.34571,2.45743 4.61302,0.82998 1.21432,-1.55941 1.27985,-1.4811 0.6376,0.76195 -0.56375,1.96888 -0.45256,2.25 0.52336,1.32322 0.72033,-0.68406 0.98064,-2.20688 0.62171,-3.63696 z m 36.63293,-25.37925 c 0.97297,-0.25354 2.32297,-0.23687 3,0.0371 0.67703,0.27393 -0.11903,0.48137 -1.76903,0.46099 -1.65,-0.0204 -2.20394,-0.2445 -1.23097,-0.49804 z m 13.48097,-0.96929 c 0.6875,-0.27741 1.8125,-0.27741 2.5,0 0.6875,0.27741 0.125,0.50439 -1.25,0.50439 -1.375,0 -1.9375,-0.22698 -1.25,-0.50439 z m 20.03352,-1.07612 c 2.90594,-0.20265 7.40594,-0.20052 10,0.005 2.59406,0.20525 0.21648,0.37104 -5.28352,0.36844 -5.5,-0.003 -7.62242,-0.17053 -4.71648,-0.37317 z m -28.0712,28.63722 c -1.2038,-0.70058 -2.67355,-0.71643 -4.5,-0.0485 -2.50351,0.91547 -2.36589,0.99556 1.78768,1.04036 3.58155,0.0386 4.13514,-0.16379 2.71232,-0.99182 z m 57.78768,0.10118 c 0.33992,-0.55 0.16803,-1 -0.38197,-1 -0.55,0 -1.27811,0.45 -1.61803,1 -0.33992,0.55 -0.16803,1 0.38197,1 0.55,0 1.27811,-0.45 1.61803,-1 z m 201.82289,179.23988 c -2.12156,-3.69661 -4.97674,-4.2143 -23.71246,-4.29949 -7.21074,-0.0328 -15.13543,-0.45818 -17.61043,-0.94532 -13.14875,-2.58799 -12.9612,-2.49736 -19.85113,-9.59357 -10.58309,-10.89996 -10.2613,-9.14543 -11.26118,-61.4015 -0.79573,-41.58725 -1.22378,-48.54939 -3.78112,-61.5 -0.54304,-2.75 -1.01417,-8.68678 -1.04696,-13.19284 -0.0488,-6.70064 0.34206,-8.88626 2.14574,-12 1.21294,-2.09394 2.62599,-4.09769 3.14012,-4.45278 0.51412,-0.35509 2.10922,-3.05509 3.54465,-6 2.59656,-5.32705 2.63795,-5.35764 8.10988,-5.99343 3.025,-0.35148 9.1,-1.42656 13.5,-2.38907 5.06102,-1.1071 15.53115,-2.04119 28.5,-2.5426 11.275,-0.43592 27.7,-1.27152 36.5,-1.85689 8.8,-0.58537 26.80525,-1.35424 40.01166,-1.70859 28.85872,-0.77435 32.66228,-0.0874 40.59383,7.33164 l 4.89451,4.57824 0.0142,8.61316 c 0.0142,8.59374 2.31787,19.84024 6.88522,33.61316 1.93023,5.82064 4.86853,15.96591 9.70236,33.5 1.28882,4.675 3.52667,12.775 4.97301,18 2.16246,7.81206 2.71813,12.34284 3.12737,25.5 l 0.49768,16 -3.64776,4.21485 c -4.70584,5.43742 -14.28179,12.70909 -18.64166,14.15588 -1.87574,0.62244 -4.98543,2.11896 -6.91043,3.32559 -3.83361,2.40299 -17.73576,8.49308 -22.5,9.85653 -16.27749,4.65836 -20.24583,5.25653 -35.5,5.35108 -8.525,0.0528 -16.73074,-0.28852 -18.23497,-0.75857 -2.35652,-0.73637 -2.86101,-0.52312 -3.64582,1.5411 -1.48685,3.91072 -3.76423,5.05518 -11.10442,5.58037 -6.89943,0.49365 -6.97011,0.4731 -8.6919,-2.52695 z m 12.52789,-2.33771 c 1.73207,-0.6038 3.14922,-1.54683 3.14922,-2.09562 0,-0.5488 0.84282,-2.19228 1.87294,-3.65218 1.03011,-1.4599 2.13334,-4.22937 2.45162,-6.15437 0.31827,-1.925 1.52875,-8 2.68994,-13.5 3.64782,-17.27787 4.13533,-23.39024 3.70875,-46.5 -0.34226,-18.54226 -0.75022,-23.5554 -2.31928,-28.5 -2.60202,-8.19979 -2.78664,-33.74141 -0.27164,-37.57945 2.1329,-3.25491 12.3038,-9.49022 19.54284,-11.98082 3.15119,-1.08417 6.76616,-2.94516 8.03326,-4.13554 2.8557,-2.68279 8.95171,-3.61527 24.79157,-3.79228 8.21797,-0.0918 13.73343,-0.67601 17.5,-1.85352 l 5.5,-1.71943 0.3058,-4.74426 c 0.28492,-4.42023 0.0236,-5.01537 -3.82531,-8.71344 -6.89793,-6.62753 -11.36817,-7.40079 -37.98049,-6.56987 -12.375,0.38638 -29.025,1.12767 -37,1.64729 -7.975,0.51963 -23.95,1.19191 -35.5,1.49396 -11.55,0.30205 -21.9,0.91946 -23,1.37201 -2.81021,1.15615 -18.43718,4.08557 -21.7647,4.07999 -3.787,-0.006 -6.72656,4.89743 -6.73156,11.22958 -0.003,3.78459 0.56252,5.36798 2.81921,7.89365 l 2.82295,3.15943 16.42705,0.78615 c 17.39738,0.83258 20.34442,1.37626 25.92705,4.78315 1.925,1.17476 4.42422,2.13761 5.55383,2.13966 2.47741,0.005 7.85503,5.35674 9.54881,9.50374 2.08893,5.11445 3.19842,22.85374 3.22103,51.5 0.0158,20.00904 -0.31606,28.12924 -1.21828,29.81 -0.80098,1.49217 -1.44717,9.33892 -1.82521,22.16351 l -0.58524,19.85352 2.98639,3.83648 c 1.64251,2.11007 3.27202,4.62399 3.62114,5.58649 0.73784,2.03419 4.78991,2.31096 9.54831,0.65217 z m 318.64922,-22.40133 c -16.68161,-1.56484 -19.9241,-2.16719 -37.5,-6.96623 -30.52951,-8.33597 -30.84156,-8.48479 -47,-22.41446 -2.475,-2.13361 -6.075,-5.22293 -8,-6.86515 -1.925,-1.64221 -5.36996,-3.93385 -7.65547,-5.09252 -2.28551,-1.15867 -5.12895,-3.35674 -6.31874,-4.88458 -1.1898,-1.52785 -4.03663,-4.27281 -6.32629,-6.09993 -3.48191,-2.77852 -4.11097,-3.81827 -3.84487,-6.35511 0.22732,-2.16714 -0.4019,-3.78819 -2.20394,-5.67797 -3.3787,-3.5432 -6.19827,-10.45053 -6.9673,-17.06831 -0.34663,-2.98289 -1.0922,-5.88539 -1.65681,-6.45 -0.56462,-0.56462 -1.02658,-3.21314 -1.02658,-5.8856 0,-3.00742 -0.38376,-4.62184 -1.00706,-4.23661 -1.17759,0.72778 -2.4443,-1.96503 -1.58126,-3.36147 0.6762,-1.09411 10.96324,1.29723 14.08832,3.27499 1.1,0.69615 3.35,1.58508 5,1.97539 3.35426,0.79346 17.59895,6.65978 24.5,10.08972 2.475,1.23011 7.2,3.25774 10.5,4.50584 3.3,1.2481 9.6,3.9688 14,6.046 4.4,2.07721 10.475,4.54244 13.5,5.4783 3.025,0.93586 8.2,2.60736 11.5,3.71446 3.3,1.10709 9.15,2.79924 13,3.76032 3.85,0.96108 9.04295,2.65045 11.53988,3.75415 2.49693,1.10369 6.0607,2.34075 7.91949,2.74901 1.85878,0.40825 6.56583,2.10027 10.46012,3.76003 3.89428,1.65977 9.55551,3.36247 12.58051,3.78379 3.025,0.42133 8.2,1.25167 11.5,1.8452 7.28463,1.31021 41.1064,3.08706 59.12288,3.10606 10.6613,0.0112 13.94394,0.36981 17.50004,1.91156 2.4074,1.04375 7.6152,2.46146 11.573,3.15048 6.2766,1.09272 7.5029,1.05153 9.5998,-0.32241 2.3335,-1.52895 2.4011,-1.49752 2.3042,1.07108 -0.065,1.71888 -0.9259,3.05768 -2.457,3.82029 -1.4831,0.73871 -3.5859,3.90104 -5.6711,8.52844 -3.8443,8.5311 -5.8489,10.22175 -21.09072,17.78822 -16.70042,8.29055 -17.36472,8.39726 -53.8811,8.65471 -20.43449,0.14407 -37.05991,-0.24905 -46,-1.08769 z M 1011.32,403.38564 c -7.15,-0.4465 -14.35002,-1.26037 -16.00002,-1.80862 -1.65,-0.54824 -5.475,-1.29909 -8.5,-1.66854 -3.025,-0.36946 -7.525,-1.46753 -10,-2.44015 -7.27052,-2.85715 -16.68536,-5.54976 -29.5,-8.43689 -6.6,-1.48698 -13.35,-3.17836 -15,-3.75863 -1.65,-0.58027 -7.5,-1.64315 -13,-2.36195 C 908.6232,381.51287 898.2487,379.1626 893.22847,377 c -1.70033,-0.73246 -5.75033,-1.65357 -9,-2.0469 -3.24967,-0.39334 -6.49494,-1.1846 -7.21171,-1.75837 -1.55636,-1.24586 -6.35175,-2.21375 -23.69678,-4.7829 -3.85,-0.57027 -8.575,-1.63016 -10.5,-2.35533 -4.4517,-1.677 -12.42838,-3.57177 -15.03655,-3.57177 -1.89929,0 -10.52881,-4.23183 -23.09046,-11.32335 -3.09486,-1.74716 -7.64185,-5.03803 -10.10443,-7.31306 -2.46257,-2.27502 -5.55542,-4.42828 -6.87298,-4.78501 -1.31757,-0.35672 -3.97058,-1.08637 -5.89558,-1.62144 -1.925,-0.53506 -6.19564,-1.54119 -9.49032,-2.23584 -4.62118,-0.97433 -6.07446,-1.71536 -6.35845,-3.24215 -0.20247,-1.08853 -0.0281,-1.65037 0.3876,-1.24854 0.80509,0.77834 6.38648,-5.99419 6.43335,-7.8063 0.0153,-0.59162 1.15282,-2.13256 2.52782,-3.42431 1.375,-1.29175 2.5,-2.6975 2.5,-3.1239 0,-0.4264 1.6875,-3.08217 3.75,-5.90171 2.63067,-3.59627 5.47997,-6.01041 9.54578,-8.08792 3.18767,-1.62881 6.04832,-3.6196 6.35698,-4.42397 0.30867,-0.80438 1.3919,-1.4625 2.40718,-1.4625 1.76905,0 3.65682,-0.64889 10.59119,-3.64053 1.73312,-0.74771 4.07445,-1.35947 5.20295,-1.35947 1.95294,0 4.93841,-0.99301 9.8862,-3.28829 1.74114,-0.80772 2.64991,-0.66857 4.07875,0.62451 1.62997,1.47511 5.29494,1.66378 32.31858,1.66378 25.25193,0 30.81309,-0.25184 32.42126,-1.4682 2.40363,-1.81801 4.65421,-1.91883 6.29079,-0.2818 1.4427,1.44309 3.63249,1.75335 14.65034,2.07573 4.4,0.12874 8.675,0.52903 9.5,0.88952 0.825,0.3605 5.55,1.8542 10.5,3.31932 4.95,1.46513 9.45,3.01054 10,3.43426 0.55,0.42371 2.5832,1.05489 4.51823,1.40261 1.93502,0.34772 5.19589,1.5314 7.24637,2.63039 2.05048,1.09899 4.30701,1.99817 5.0145,1.99817 1.67938,0 13.85021,6.36953 20.2209,10.58248 9.13962,6.04406 26.86932,24.7833 31.55502,33.35177 1.5982,2.92246 3.4378,5.95461 4.088,6.7381 0.6503,0.7835 2.9043,5.11524 5.0089,9.6261 3.8181,8.18348 3.8266,8.2303 3.8373,21.25155 0.01,8.37267 0.4168,13.45601 1.1436,14.18278 1.5567,1.55669 0.3254,4.2991 -1.8514,4.12358 -0.9798,-0.079 -7.6314,-0.50895 -14.7814,-0.95545 z m -74.75002,-61.896 c 1.7875,-0.66031 3.25,-1.84947 3.25,-2.64257 0,-2.06841 -3.55607,-8.74902 -5.52838,-10.38589 -0.921,-0.76437 -3.23702,-3.83229 -5.14671,-6.81761 l -3.47215,-5.42786 -8.77612,0.5004 c -7.49266,0.42721 -9.71212,0.9953 -15.17638,3.8845 -6.17302,3.26397 -6.41108,3.53307 -6.70508,7.5793 -0.23657,3.25583 0.17394,4.63662 1.83333,6.16667 1.17599,1.08431 3.35464,3.11296 4.84145,4.50811 1.48681,1.39514 3.81181,3.00909 5.16666,3.58655 3.18424,1.35717 25.38839,0.64606 29.71338,-0.9516 z"
         id="path5963" />
      <path
         style="fill:#cf8701"
         d="m 315.81998,504.75812 c -7.76707,-1.18259 -32.29936,-10.69702 -43.26062,-16.77789 -4.49253,-2.49228 -23.52498,-10.7259 -27.73938,-12.00033 -9.15154,-2.76741 -22.22252,-11.33698 -24.44918,-16.02933 -1.71512,-3.61434 -1.96659,-15.267 -0.6251,-28.96584 0.91836,-9.37797 0.57281,-9.9109 -7.0848,-10.92672 -2.81742,-0.37374 -8.0058,-1.62602 -11.52974,-2.78285 -5.14305,-1.68834 -7.29756,-3.09366 -10.92014,-7.12284 -10.42601,-11.59624 -12.01734,-17.07454 -13.49541,-46.45931 -0.9689,-19.26243 -0.9132,-21.53252 0.58449,-23.81828 2.12291,-3.23998 12.56878,-9.91865 19.01313,-12.15625 2.74629,-0.95356 9.04629,-3.75875 14,-6.23375 l 9.00675,-4.5 0.76754,-12 c 0.42214,-6.6 0.95127,-12.51234 1.17584,-13.13854 0.52723,-1.47016 38.87202,-20.24187 49.00748,-23.99164 4.26635,-1.5784 8.81745,-3.92591 10.11356,-5.21668 1.29611,-1.29077 4.89462,-6.60019 7.99669,-11.79871 l 5.64012,-9.45185 -0.35061,-8.24248 c -0.29507,-6.93648 -0.74674,-8.75957 -2.85062,-11.50594 -3.09864,-4.04492 -11.48958,-13.48837 -15.5,-17.44424 -5.38774,-5.31446 -6.48635,-7.76089 -6.49341,-14.45992 -0.004,-3.50439 0.43271,-6.25 0.99341,-6.25 0.56426,0 1,2.83663 1,6.50989 v 6.50988 l 6.75,7.28376 c 16.80662,18.13559 18.25,20.62607 18.25,31.48935 0,6.01895 -0.36607,7.10267 -5,14.80218 -7.06911,11.74566 -7.01161,11.85078 4.34263,7.9392 3.93655,-1.35616 9.08987,-2.95389 11.45182,-3.55052 3.21612,-0.81238 4.5627,-1.76261 5.36272,-3.78425 0.58754,-1.48472 1.72026,-3.94087 2.51716,-5.4581 2.04048,-3.8849 3.49246,-11.80023 4.01461,-21.88519 l 0.44753,-8.6438 -4.14634,-4.3562 c -12.10857,-12.72145 -13.99589,-15.75661 -13.97482,-22.47423 0.008,-2.68509 0.45153,-5.55697 0.98469,-6.38197 0.68252,-1.05612 0.97391,0.36896 0.98469,4.81574 0.008,3.47366 0.50134,7.22389 1.09537,8.33385 0.59403,1.10996 4.68589,6.10844 9.09302,11.10773 l 8.01297,9.08962 -0.51618,8.57653 c -0.64098,10.65008 -2.59948,19.72359 -5.03334,23.31881 -2.1877,3.23162 -1.51452,6.35536 1.1219,5.20594 0.95786,-0.41761 7.59157,-1.0268 14.74157,-1.35375 7.15,-0.32696 13.49065,-0.91412 14.09033,-1.30481 2.53527,-1.65169 10.58185,-15.10942 13.38178,-22.38074 2.14562,-5.57207 3.02789,-9.59051 3.02789,-13.79095 0,-5.62566 -0.20606,-6.12366 -4.04473,-9.7753 -2.2246,-2.11622 -5.7121,-4.70841 -7.75,-5.76043 -5.27485,-2.72304 -10.65908,-8.79814 -12.72211,-14.35453 -2.307,-6.21347 -1.24634,-7.24144 1.36968,-1.32748 3.1818,7.19298 6.70229,11.07599 13.81129,15.23349 8.39811,4.9114 11.33587,9.06126 11.33587,16.01298 0,6.7441 -4.85996,19.68766 -10.76755,28.67731 -2.46644,3.7532 -4.09024,7.16262 -3.60844,7.57649 0.48179,0.41386 4.47599,1.32235 8.87599,2.01886 12.72747,2.01474 24.73197,5.08914 28.21195,7.22519 4.83841,2.96988 12.89886,13.18722 15.07436,19.10809 3.50376,9.53591 3.52197,11.32665 0.15419,15.16235 l -3.00744,3.42528 1.64954,10.32987 c 1.89939,11.8944 1.47669,26.07537 -0.96366,32.32986 -0.85839,2.2 -2.11788,6.025 -2.79887,8.5 l -1.23816,4.5 -0.67407,-6.5 c -0.37074,-3.575 -0.72928,-11.225 -0.79675,-17 -0.11677,-9.99478 -1.43833,-21.66057 -2.58354,-22.80579 -0.29309,-0.29308 -6.71919,2.44934 -14.28022,6.09428 -7.56103,3.64494 -15.77233,7.07858 -18.24733,7.63031 -2.475,0.55174 -7.68172,2.09143 -11.57048,3.42155 -11.51858,3.93982 -20.58221,5.11541 -39.42952,5.11417 -16.34392,-0.001 -17.97453,-0.17312 -24.68312,-2.60437 -10.12003,-3.66757 -19.68,-9.24867 -26.35744,-15.38744 -3.14841,-2.89442 -6.87411,-6.01592 -8.27933,-6.93665 -5.24161,-3.43444 -20.03699,-5.94308 -20.84678,-3.5347 -0.18333,0.54525 -0.10833,4.03275 0.16667,7.75 l 0.5,6.75864 6,0.50393 c 6.87733,0.57762 8.5,1.34503 8.5,4.0199 0,2.52169 -2.9264,3.97617 -8,3.97617 -6.43144,0 -8.1936,1.37265 -7.45097,5.80401 1.42792,8.52065 2.34345,10.09018 6.2677,10.74509 9.5782,1.59847 11.75337,4.29491 4.68327,5.80558 -8.68391,1.85549 -8.069,0.64902 -9.58718,18.81048 -0.75102,8.98416 -1.37614,16.78484 -1.38916,17.33484 -0.013,0.55 2.59127,2.26703 5.78729,3.81561 4.75015,2.30162 5.75419,3.21438 5.5,5 -0.27992,1.96639 -0.90502,2.18439 -6.2637,2.18439 h -5.95275 l -0.83482,4 c -0.45914,2.2 -0.70541,7.11136 -0.54725,10.91413 l 0.28757,6.91413 3.5,1.17509 c 1.925,0.6463 3.5,1.76979 3.5,2.49665 0,0.72686 -1.575,1.85143 -3.5,2.49904 l -3.5,1.17749 -0.27259,16.92358 -0.27259,16.92359 5.27259,5.19332 c 2.89992,2.85632 8.98652,7.42118 13.52577,10.14413 8.67643,5.20471 33.58408,16.16579 41.24682,18.15145 2.475,0.64135 10.35,3.11681 17.5,5.50103 10.13923,3.38098 15.54233,4.57165 24.55295,5.41065 19.38006,1.80452 26.76658,1.47674 32.50071,-1.44223 7.54666,-3.84165 9.18569,-5.662 12.73782,-14.14697 2.83545,-6.77304 3.61409,-7.83508 5.74429,-7.83508 3.68658,0 3.86761,5.73691 0.42323,13.412 -3.27787,7.30408 -5.20374,9.07304 -13.459,12.36238 -6.07148,2.4192 -7.81852,2.61598 -26.5,2.9848 -11,0.21717 -21.125,0.22356 -22.5,0.0142 z m -93.71619,-98.8551 c 0.43109,-3.80506 0.65609,-8.90523 0.5,-11.3337 -0.27708,-4.31073 -0.44719,-4.51225 -7.17503,-8.5 -3.79017,-2.24653 -9.269,-6.33459 -12.17519,-9.08459 -6.44198,-6.09577 -7.4057,-9.64423 -4.93113,-18.15647 2.12493,-7.30948 8.64212,-14.17942 15.99754,-16.86342 2.75,-1.00347 5.49642,-2.19727 6.10315,-2.65288 1.19725,-0.89903 0.70971,-10.73163 -0.60292,-12.15971 -0.42086,-0.45787 -3.40558,0.5027 -6.63271,2.1346 -3.22714,1.63189 -9.24252,4.17092 -13.36752,5.64228 -8.64705,3.08434 -14.94344,7.07376 -16.72701,10.5983 -2.10225,4.15426 -1.62959,25.69079 0.79001,35.99696 2.08927,8.89914 6.58237,17.84745 11.61365,23.12937 3.37262,3.54062 20.22532,9.21232 24.82335,8.35419 0.55,-0.10265 1.35271,-3.29987 1.78381,-7.10493 z m -0.28381,-41.35927 c 0,-9.29076 -0.39435,-15.18471 -1.0428,-15.58547 -1.80687,-1.11671 -10.35676,3.87923 -12.70575,7.42433 -2.40414,3.62833 -2.99302,9.84797 -1.24216,13.11948 1.2139,2.26819 11.76514,9.98264 13.6535,9.98264 1.05661,0 1.33721,-3.13518 1.33721,-14.94098 z m 87.5,-43.0065 c 1.5494,-0.62511 0.87349,-0.94896 -3,-1.4374 -8.11418,-1.02319 -23.0649,-3.51918 -25.10807,-4.19173 -1.04056,-0.34253 -0.0276,0.54385 2.25097,1.96973 5.8864,3.68354 20.62666,5.76964 25.8571,3.6594 z m 24.22917,-6.65669 c -0.33229,-0.33229 -1.1948,-0.36781 -1.91667,-0.0789 -0.79773,0.31922 -0.56078,0.55618 0.60417,0.60416 1.05416,0.0434 1.64479,-0.19293 1.3125,-0.52522 z m 30.72378,-3.55635 c 2.99735,-1.36568 3.33879,-2.83948 0.65783,-2.83948 -2.5274,0 -7.37559,3.91852 -4.90783,3.96673 0.93662,0.0183 2.84912,-0.48896 4.25,-1.12725 z m -100.91782,-9.89632 c 0.35923,-0.58125 0.38999,-2.10539 0.0683,-3.38696 -0.42538,-1.69486 -1.54157,-2.50961 -4.09414,-2.98847 -1.9301,-0.3621 -3.50929,-1.01822 -3.50929,-1.45806 0,-3.15979 17.20552,-10.87521 39,-17.48864 5.51627,-1.67389 29.91599,-3.61061 45.57463,-3.61749 6.62402,-0.003 9.79721,0.60412 17.6631,3.37889 11.17303,3.9414 12.02882,4.47325 18.14645,11.27753 3.90363,4.34177 4.61582,5.76698 4.61582,9.23697 0,4.76252 0.70794,4.95102 6.73744,1.79397 4.5456,-2.38009 8.27035,-8.09049 8.25279,-12.65234 -0.0172,-4.48313 -4.81598,-13.04168 -10.33183,-18.42688 -6.21114,-6.06401 -12.81202,-8.84243 -25.1584,-10.58958 -4.4,-0.62266 -9.10222,-1.2871 -10.44939,-1.47654 -4.36606,-0.61398 -7.05061,1.07264 -7.05061,4.42969 0,4.05953 -1.7913,3.875 -2.18664,-0.22525 l -0.31336,-3.25 -8.01483,0.0938 c -13.66433,0.16003 -22.48517,3.12624 -22.48517,7.56119 0,1.01475 -0.45,1.84501 -1,1.84501 -0.55,0 -1,-0.9 -1,-2 0,-2.52466 -0.13962,-2.51637 -9.07485,0.53902 -4.08383,1.39646 -9.43175,2.99446 -11.88425,3.5511 -5.48934,1.2459 -7.0409,2.46503 -7.0409,5.53232 0,1.30766 -0.45,2.37756 -1,2.37756 -0.55,0 -1,-0.87344 -1,-1.94098 0,-3.01826 -1.61711,-3.34635 -7.27247,-1.47552 -5.93881,1.9646 -34.06861,16.14462 -34.5305,17.40657 -0.16663,0.45526 1.18337,1.14958 3,1.54294 4.25522,0.92137 13.45565,5.63961 17.30297,8.87344 3.18172,2.67437 5.95731,3.28066 7.03513,1.53671 z m 42.17719,-2.04434 c -1.2038,-0.70058 -2.67355,-0.71643 -4.5,-0.0485 -2.50351,0.91547 -2.36589,0.99556 1.78768,1.04036 3.58155,0.0386 4.13514,-0.16379 2.71232,-0.99182 z m 57.78768,0.10118 c 0.33992,-0.55 0.16803,-1 -0.38197,-1 -0.55,0 -1.27811,0.45 -1.61803,1 -0.33992,0.55 -0.16803,1 0.38197,1 0.55,0 1.27811,-0.45 1.61803,-1 z m 202.48343,177.69649 -1.94911,-3.3035 -17.10094,-0.27 c -9.40551,-0.1485 -19.42573,-0.69135 -22.26716,-1.20634 -2.84142,-0.51498 -6.84869,-1.21548 -8.90504,-1.55666 -2.90047,-0.48123 -5.23011,-2.1448 -10.38963,-7.41907 -10.75621,-10.99546 -10.50251,-9.65076 -11.40306,-60.44092 -0.76404,-43.09091 -1.46049,-56.01299 -3.1335,-58.13952 -0.49307,-0.62673 -1.17111,-6.26386 -1.50676,-12.52695 -0.64751,-12.08237 0.10186,-15.26081 4.81605,-20.42705 1.05068,-1.15143 2.91054,-4.07643 4.13302,-6.5 2.00796,-3.98076 2.60915,-4.43578 6.2227,-4.7098 2.2,-0.16682 8.275,-1.25231 13.5,-2.41219 6.96071,-1.54519 15.11316,-2.31275 30.5,-2.87158 11.55,-0.41948 27.975,-1.24418 36.5,-1.83266 8.525,-0.58848 25.85,-1.35226 38.5,-1.69728 27.66926,-0.75465 31.80251,0.0137 39.67223,7.3749 l 4.82777,4.51581 v 8.47008 c 0,9.6256 1.92594,19.35582 5.98873,30.25624 1.53746,4.125 3.0906,9.075 3.4514,11 0.36081,1.925 1.97631,8 3.59,13.5 10.56106,35.99572 11.92242,42.77774 11.94347,59.5 0.0105,8.32335 -0.34819,11.04794 -1.73019,13.14324 -3.0077,4.56007 -15.75165,14.5012 -20.79083,16.21822 -2.63273,0.89706 -5.49909,2.27046 -6.36969,3.05199 -1.91179,1.71623 -22.3686,10.09237 -26.58289,10.8845 -1.65,0.31014 -5.925,1.33631 -9.5,2.28037 -7.2291,1.90901 -32.65491,2.58457 -39.22646,1.04223 -3.47143,-0.81474 -3.79607,-0.6915 -4.74364,1.8008 -1.22263,3.21577 -6.31866,5.57865 -12.03151,5.57865 -3.5406,0 -4.31763,-0.42676 -6.01496,-3.30351 z m 12.93615,0.0388 c 2.90292,-1.48202 6.04726,-6.75055 7.30218,-12.23526 5.91513,-25.85244 6.66704,-32.11896 6.71933,-56 0.0452,-20.62673 -0.85464,-29.90225 -3.61288,-37.24251 -1.26871,-3.37631 -1.49276,-6.84726 -1.09734,-17 0.27328,-7.01662 1.03373,-13.89264 1.68988,-15.28004 1.26591,-2.67669 5.12648,-5.28343 14.07925,-9.50662 9.59697,-4.52707 11.42484,-5.46692 14.73996,-7.57901 2.82518,-1.79994 5.51361,-2.15525 21,-2.77541 14.59593,-0.5845 18.47268,-1.05908 21.76004,-2.66381 3.82732,-1.86831 4.01302,-2.17846 4.30163,-7.18431 0.27724,-4.80881 0.0244,-5.50892 -3.12779,-8.66112 -6.99921,-6.99921 -7.5512,-7.11462 -33.67384,-7.04042 -12.925,0.0367 -32.275,0.65356 -43,1.37078 -10.725,0.71722 -28.05,1.48832 -38.5,1.71355 -10.45,0.22524 -19.9,0.78417 -21,1.24208 -2.69594,1.12224 -18.6088,4.10681 -21.89649,4.10681 -6.34033,0 -9.19733,14.47839 -4.01903,20.36724 3.18203,3.61866 7.34899,4.57897 19.99874,4.6089 12.22613,0.0289 20.71819,1.61006 25.28219,4.70727 1.87753,1.27413 4.45768,2.31659 5.73367,2.31659 2.76464,0 6.98824,4.1434 9.17421,9 2.41623,5.36816 3.59464,21.91664 3.59607,50.5 9.3e-4,18.38115 -0.3676,27.02561 -1.25761,29.5 -0.77163,2.14524 -1.45717,11.24148 -1.77108,23.5 l -0.51216,20 4.16482,5.75 c 3.77313,5.20922 4.51007,5.74861 7.83575,5.73526 2.019,-0.008 4.75973,-0.57061 6.0905,-1.25 z m -196.62565,-6.42053 c -1.58988,-2.43632 -1.77085,-4.97077 -1.59103,-22.28187 0.17386,-16.73788 0.64839,-22.1085 3.31626,-37.53286 1.71235,-9.9 3.36779,-19.6875 3.67877,-21.75 0.31097,-2.0625 1.00494,-3.75 1.54215,-3.75 0.5372,0 0.73045,1.0125 0.42944,2.25 -2.45952,10.1114 -3.45856,34.62169 -2.31713,56.84829 0.83702,16.29897 -0.0562,26.98258 -2.37574,28.41614 -0.48883,0.30211 -1.69606,-0.68775 -2.68272,-2.1997 z m 514.20607,-16.81392 c -16.68161,-1.56484 -19.9241,-2.16719 -37.5,-6.96623 -30.52951,-8.33597 -30.84156,-8.48479 -47,-22.41446 -2.475,-2.13361 -6.075,-5.22293 -8,-6.86515 -1.925,-1.64221 -5.36996,-3.93385 -7.65547,-5.09252 -2.28551,-1.15867 -5.12895,-3.35674 -6.31874,-4.88458 -1.1898,-1.52785 -4.03663,-4.27281 -6.32629,-6.09993 -3.48191,-2.77852 -4.11097,-3.81827 -3.84487,-6.35511 0.22732,-2.16714 -0.4019,-3.78819 -2.20394,-5.67797 -3.3787,-3.5432 -6.19827,-10.45053 -6.9673,-17.06831 -0.34663,-2.98289 -1.0922,-5.88539 -1.65681,-6.45 -0.56462,-0.56462 -1.02658,-3.09658 -1.02658,-5.62658 0,-2.53 -0.5625,-5.19458 -1.25,-5.92129 -1.84635,-1.95165 5.26692,-0.51785 12.46846,2.51324 3.1467,1.32443 6.18898,2.40805 6.76062,2.40805 1.37244,0 19.94282,7.9289 22.57441,9.63848 1.12942,0.73371 4.71531,2.24982 7.96864,3.36913 3.25333,1.11931 9.07926,3.57407 12.94651,5.45501 9.27216,4.50977 19.45501,8.53738 21.58471,8.53738 0.93969,0 4.75178,1.14548 8.47131,2.5455 3.71953,1.40003 9.51061,3.16074 12.86906,3.9127 3.35846,0.75195 8.80628,2.52079 12.10628,3.93076 3.3,1.40996 6.74555,2.57425 7.65678,2.5873 0.91123,0.0131 4.73623,1.42202 8.5,3.13104 3.76377,1.70901 9.31822,3.46422 12.34322,3.90047 3.025,0.43625 8.2,1.2788 11.5,1.87233 7.30045,1.31306 41.12046,3.08711 59.21298,3.10606 10.52695,0.011 14.18612,0.39502 18.00004,1.8889 7.6822,3.00908 18.7916,4.67171 21.8634,3.27207 2.2542,-1.02707 2.5336,-0.95667 2.2406,0.56463 -0.1841,0.9559 -1.3914,2.26483 -2.6829,2.90872 -1.4723,0.734 -3.5845,3.91419 -5.6623,8.52512 -3.8443,8.5311 -5.8489,10.22175 -21.09072,17.78822 -16.70042,8.29055 -17.36472,8.39726 -53.8811,8.65471 -20.43449,0.14407 -37.05991,-0.24905 -46,-1.08769 z M 1011.82,402.36744 c -6.875,-0.4575 -14.07502,-1.25555 -16.00002,-1.77344 -1.925,-0.51789 -5.525,-1.24278 -8,-1.61086 -2.475,-0.36808 -9.675,-2.36809 -16,-4.44447 -6.325,-2.07638 -16.9,-4.99301 -23.5,-6.48141 -6.6,-1.4884 -14.025,-3.32076 -16.5,-4.07191 -2.475,-0.75115 -7.875,-1.65539 -12,-2.00942 -4.125,-0.35404 -9.525,-1.28042 -12,-2.05864 -7.11937,-2.23854 -15.93385,-4.46865 -23.24917,-5.88217 -3.71204,-0.71726 -7.31204,-1.7562 -8,-2.30875 -0.68795,-0.55255 -2.82583,-1.2616 -4.75083,-1.57568 -1.925,-0.31408 -5.075,-0.8292 -7,-1.14472 -1.925,-0.31552 -6.875,-1.05343 -11,-1.63979 -4.125,-0.58636 -8.85,-1.65109 -10.5,-2.36605 -3.68282,-1.59582 -11.74193,-3.51512 -14.76435,-3.51619 -2.64877,-9.3e-4 -13.97299,-5.20662 -18.23565,-8.38283 -1.65,-1.22945 -4.89741,-3.20601 -7.21648,-4.39235 -2.31906,-1.18634 -5.98713,-3.92764 -8.15128,-6.09179 -2.16414,-2.16414 -4.99172,-4.21998 -6.28352,-4.56853 -1.2918,-0.34855 -3.92372,-1.05641 -5.84872,-1.57303 -1.925,-0.51662 -6.0875,-1.43277 -9.25,-2.03589 -6.5755,-1.25402 -7.06521,-2.36391 -3.25,-7.3659 1.375,-1.80272 2.5,-3.71925 2.5,-4.25897 0,-0.53971 1.125,-2.03817 2.5,-3.32992 1.375,-1.29175 2.5,-2.6975 2.5,-3.1239 0,-0.4264 1.6875,-3.08217 3.75,-5.90171 2.63067,-3.59627 5.47997,-6.01041 9.54578,-8.08792 3.18767,-1.62881 6.04832,-3.6196 6.35698,-4.42397 0.30867,-0.80438 1.3919,-1.4625 2.40718,-1.4625 1.76905,0 3.65682,-0.64889 10.59119,-3.64053 1.73312,-0.74771 4.07445,-1.35947 5.20295,-1.35947 1.95294,0 4.93841,-0.99301 9.8862,-3.28829 1.74114,-0.80772 2.64991,-0.66857 4.07875,0.62451 1.62997,1.47511 5.29494,1.66378 32.31858,1.66378 25.25193,0 30.81309,-0.25184 32.42126,-1.4682 2.40363,-1.81801 4.65421,-1.91883 6.29079,-0.2818 1.4427,1.44309 3.63249,1.75335 14.65034,2.07573 4.4,0.12874 8.675,0.52903 9.5,0.88952 0.825,0.3605 5.55,1.8542 10.5,3.31932 4.95,1.46513 9.45,3.01054 10,3.43426 0.55,0.42371 2.5832,1.05489 4.51823,1.40261 1.93502,0.34772 5.19589,1.5314 7.24637,2.63039 2.05048,1.09899 4.30701,1.99817 5.0145,1.99817 1.67938,0 13.85021,6.36953 20.2209,10.58248 9.13962,6.04406 26.86932,24.7833 31.55502,33.35177 1.5982,2.92246 3.4378,5.95461 4.088,6.7381 0.6503,0.7835 2.9043,5.11524 5.0089,9.6261 3.8247,8.19765 3.8266,8.20783 3.8373,21.39253 0.01,7.70313 0.4268,13.44811 1.0108,13.80902 1.9123,1.18186 1.0481,3.50305 -1.25,3.35727 -1.2375,-0.0785 -7.875,-0.51706 -14.75,-0.97456 z m -73.23011,-60.26373 c 1.77655,-0.91869 3.23009,-2.13113 3.23009,-2.69432 0,-1.7159 -3.07276,-7.20087 -6.40025,-11.42466 -1.73316,-2.2 -4.26463,-5.69896 -5.62548,-7.77546 -2.99836,-4.57516 -4.93197,-5.15031 -14.99597,-4.46051 -6.28651,0.43089 -9.03913,1.18716 -14.14207,3.8855 l -6.33623,3.35047 -0.31304,4.95198 c -0.30232,4.78236 -0.14818,5.10472 4.5,9.41132 7.80344,7.22998 8.1221,7.32351 23.33295,6.84836 10.02258,-0.31308 14.35547,-0.85442 16.75,-2.09268 z m -549.76991,38.38102 c 0,-0.55 0.47656,-1 1.05902,-1 0.58246,0 0.7809,0.45 0.44098,1 -0.33992,0.55 -0.81648,1 -1.05902,1 -0.24254,0 -0.44098,-0.45 -0.44098,-1 z"
         id="path5961" />
      <path
         style="fill:#000000"
         d="m 315.81998,504.75812 c -7.76707,-1.18259 -32.29936,-10.69702 -43.26062,-16.77789 -4.49253,-2.49228 -23.52498,-10.7259 -27.73938,-12.00033 -9.15154,-2.76741 -22.22252,-11.33698 -24.44918,-16.02933 -1.71512,-3.61434 -1.96659,-15.267 -0.6251,-28.96584 0.91836,-9.37797 0.57281,-9.9109 -7.0848,-10.92672 -2.81742,-0.37374 -8.0058,-1.62602 -11.52974,-2.78285 -5.14305,-1.68834 -7.29756,-3.09366 -10.92014,-7.12284 -10.42601,-11.59624 -12.01734,-17.07454 -13.49541,-46.45931 -0.9689,-19.26243 -0.9132,-21.53252 0.58449,-23.81828 2.12291,-3.23998 12.56878,-9.91865 19.01313,-12.15625 2.74629,-0.95356 9.04629,-3.75875 14,-6.23375 l 9.00675,-4.5 0.76754,-12 c 0.42214,-6.6 0.95127,-12.51234 1.17584,-13.13854 0.52723,-1.47016 38.87202,-20.24187 49.00748,-23.99164 4.26635,-1.5784 8.81745,-3.92591 10.11356,-5.21668 1.29611,-1.29077 4.89462,-6.60019 7.99669,-11.79871 l 5.64012,-9.45185 -0.35061,-8.24248 c -0.29507,-6.93648 -0.74674,-8.75957 -2.85062,-11.50594 -3.09864,-4.04492 -11.48958,-13.48837 -15.5,-17.44424 -5.38774,-5.31446 -6.48635,-7.76089 -6.49341,-14.45992 -0.004,-3.50439 0.43271,-6.25 0.99341,-6.25 0.56426,0 1,2.83663 1,6.50989 v 6.50988 l 6.75,7.28376 c 16.80662,18.13559 18.25,20.62607 18.25,31.48935 0,6.01895 -0.36607,7.10267 -5,14.80218 -7.06911,11.74566 -7.01161,11.85078 4.34263,7.9392 3.93655,-1.35616 9.08987,-2.95389 11.45182,-3.55052 3.21612,-0.81238 4.5627,-1.76261 5.36272,-3.78425 0.58754,-1.48472 1.72026,-3.94087 2.51716,-5.4581 2.04048,-3.8849 3.49246,-11.80023 4.01461,-21.88519 l 0.44753,-8.6438 -4.14634,-4.3562 c -12.10857,-12.72145 -13.99589,-15.75661 -13.97482,-22.47423 0.008,-2.68509 0.45153,-5.55697 0.98469,-6.38197 0.68252,-1.05612 0.97391,0.36896 0.98469,4.81574 0.008,3.47366 0.50134,7.22389 1.09537,8.33385 0.59403,1.10996 4.68589,6.10844 9.09302,11.10773 l 8.01297,9.08962 -0.51618,8.57653 c -0.64098,10.65008 -2.59948,19.72359 -5.03334,23.31881 -2.1877,3.23162 -1.51452,6.35536 1.1219,5.20594 0.95786,-0.41761 7.59157,-1.0268 14.74157,-1.35375 7.15,-0.32696 13.49065,-0.91412 14.09033,-1.30481 2.53527,-1.65169 10.58185,-15.10942 13.38178,-22.38074 2.14562,-5.57207 3.02789,-9.59051 3.02789,-13.79095 0,-5.62566 -0.20606,-6.12366 -4.04473,-9.7753 -2.2246,-2.11622 -5.7121,-4.70841 -7.75,-5.76043 -5.27485,-2.72304 -10.65908,-8.79814 -12.72211,-14.35453 -2.307,-6.21347 -1.24634,-7.24144 1.36968,-1.32748 3.1818,7.19298 6.70229,11.07599 13.81129,15.23349 8.39811,4.9114 11.33587,9.06126 11.33587,16.01298 0,6.7441 -4.85996,19.68766 -10.76755,28.67731 -2.46644,3.7532 -4.09024,7.16262 -3.60844,7.57649 0.48179,0.41386 4.47599,1.32235 8.87599,2.01886 12.72747,2.01474 24.73197,5.08914 28.21195,7.22519 4.83841,2.96988 12.89886,13.18722 15.07436,19.10809 3.50376,9.53591 3.52197,11.32665 0.15419,15.16235 l -3.00744,3.42528 1.64954,10.32987 c 1.89939,11.8944 1.47669,26.07537 -0.96366,32.32986 -0.85839,2.2 -2.11788,6.025 -2.79887,8.5 l -1.23816,4.5 -0.67407,-6.5 c -0.37074,-3.575 -0.72928,-11.225 -0.79675,-17 -0.11677,-9.99478 -1.43833,-21.66057 -2.58354,-22.80579 -0.29309,-0.29308 -6.71919,2.44934 -14.28022,6.09428 -7.56103,3.64494 -15.77233,7.07858 -18.24733,7.63031 -2.475,0.55174 -7.68172,2.09143 -11.57048,3.42155 -11.51858,3.93982 -20.58221,5.11541 -39.42952,5.11417 -16.34392,-0.001 -17.97453,-0.17312 -24.68312,-2.60437 -10.12003,-3.66757 -19.68,-9.24867 -26.35744,-15.38744 -3.14841,-2.89442 -6.87411,-6.01592 -8.27933,-6.93665 -5.24161,-3.43444 -20.03699,-5.94308 -20.84678,-3.5347 -0.18333,0.54525 -0.10833,4.03275 0.16667,7.75 l 0.5,6.75864 6,0.50393 c 6.87733,0.57762 8.5,1.34503 8.5,4.0199 0,2.52169 -2.9264,3.97617 -8,3.97617 -6.43144,0 -8.1936,1.37265 -7.45097,5.80401 1.42792,8.52065 2.34345,10.09018 6.2677,10.74509 9.5782,1.59847 11.75337,4.29491 4.68327,5.80558 -8.68391,1.85549 -8.069,0.64902 -9.58718,18.81048 -0.75102,8.98416 -1.37614,16.78484 -1.38916,17.33484 -0.013,0.55 2.59127,2.26703 5.78729,3.81561 4.75015,2.30162 5.75419,3.21438 5.5,5 -0.27992,1.96639 -0.90502,2.18439 -6.2637,2.18439 h -5.95275 l -0.83482,4 c -0.45914,2.2 -0.70541,7.11136 -0.54725,10.91413 l 0.28757,6.91413 3.5,1.17509 c 1.925,0.6463 3.5,1.76979 3.5,2.49665 0,0.72686 -1.575,1.85143 -3.5,2.49904 l -3.5,1.17749 -0.27259,16.92358 -0.27259,16.92359 5.27259,5.19332 c 2.89992,2.85632 8.98652,7.42118 13.52577,10.14413 8.67643,5.20471 33.58408,16.16579 41.24682,18.15145 2.475,0.64135 10.35,3.11681 17.5,5.50103 10.13923,3.38098 15.54233,4.57165 24.55295,5.41065 19.38006,1.80452 26.76658,1.47674 32.50071,-1.44223 7.54666,-3.84165 9.18569,-5.662 12.73782,-14.14697 2.83545,-6.77304 3.61409,-7.83508 5.74429,-7.83508 3.68658,0 3.86761,5.73691 0.42323,13.412 -3.27787,7.30408 -5.20374,9.07304 -13.459,12.36238 -6.07148,2.4192 -7.81852,2.61598 -26.5,2.9848 -11,0.21717 -21.125,0.22356 -22.5,0.0142 z m -93.71619,-98.8551 c 0.43109,-3.80506 0.65609,-8.90523 0.5,-11.3337 -0.27708,-4.31073 -0.44719,-4.51225 -7.17503,-8.5 -3.79017,-2.24653 -9.269,-6.33459 -12.17519,-9.08459 -6.44198,-6.09577 -7.4057,-9.64423 -4.93113,-18.15647 2.12493,-7.30948 8.64212,-14.17942 15.99754,-16.86342 2.75,-1.00347 5.49642,-2.19727 6.10315,-2.65288 1.19725,-0.89903 0.70971,-10.73163 -0.60292,-12.15971 -0.42086,-0.45787 -3.40558,0.5027 -6.63271,2.1346 -3.22714,1.63189 -9.24252,4.17092 -13.36752,5.64228 -8.64705,3.08434 -14.94344,7.07376 -16.72701,10.5983 -2.10225,4.15426 -1.62959,25.69079 0.79001,35.99696 2.08927,8.89914 6.58237,17.84745 11.61365,23.12937 3.37262,3.54062 20.22532,9.21232 24.82335,8.35419 0.55,-0.10265 1.35271,-3.29987 1.78381,-7.10493 z m -0.28381,-41.35927 c 0,-9.29076 -0.39435,-15.18471 -1.0428,-15.58547 -1.80687,-1.11671 -10.35676,3.87923 -12.70575,7.42433 -2.40414,3.62833 -2.99302,9.84797 -1.24216,13.11948 1.2139,2.26819 11.76514,9.98264 13.6535,9.98264 1.05661,0 1.33721,-3.13518 1.33721,-14.94098 z m 87.5,-43.00975 c 1.69257,-0.68562 1.462,-0.88968 -1.5,-1.32751 -9.93294,-1.46825 -23.79513,-3.75887 -26,-4.29631 -1.80172,-0.43917 -1.34284,0.11258 1.6429,1.9754 5.89772,3.67962 20.64369,5.76026 25.8571,3.64842 z m 24.575,-6.57427 c -0.0412,-0.53625 -0.525,-0.93 -1.075,-0.875 -5.77139,0.57714 -5.68951,0.53908 -3,1.3946 2.98687,0.95012 4.17639,0.79844 4.075,-0.5196 z m 30.37795,-3.63552 c 2.99735,-1.36568 3.33879,-2.83948 0.65783,-2.83948 -2.5274,0 -7.37559,3.91852 -4.90783,3.96673 0.93662,0.0183 2.84912,-0.48896 4.25,-1.12725 z M 263.63695,299.22904 c 0.2259,-1.9639 -0.20509,-2.92109 -1.5,-3.33135 -5.66043,-1.79339 -6.53918,-2.44029 -5.31636,-3.91369 0.66226,-0.79798 3.74556,-2.60429 6.85175,-4.01402 3.1062,-1.40973 6.54565,-3.06845 7.64321,-3.68604 1.09757,-0.61759 7.98954,-3.0554 15.3155,-5.41737 13.2205,-4.26244 13.48922,-4.30357 36.00442,-5.51113 22.25631,-1.19368 22.82608,-1.17515 30.18451,0.98163 16.76167,4.91291 28,13.81714 28,22.18466 0,4.61088 0.74212,4.79305 6.73744,1.6539 4.5456,-2.38009 8.27035,-8.09049 8.25279,-12.65234 -0.0172,-4.48313 -4.81598,-13.04168 -10.33183,-18.42688 -6.21114,-6.06401 -12.81202,-8.84243 -25.1584,-10.58958 -4.4,-0.62266 -9.10222,-1.2871 -10.44939,-1.47654 -4.36606,-0.61398 -7.05061,1.07264 -7.05061,4.42969 0,4.05953 -1.7913,3.875 -2.18664,-0.22525 l -0.31336,-3.25 -8.01483,0.0938 c -13.66433,0.16003 -22.48517,3.12624 -22.48517,7.56119 0,1.01475 -0.45,1.84501 -1,1.84501 -0.55,0 -1,-0.9 -1,-2 0,-2.52466 -0.13962,-2.51637 -9.07485,0.53902 -4.08383,1.39646 -9.43175,2.99446 -11.88425,3.5511 -5.48934,1.2459 -7.0409,2.46503 -7.0409,5.53232 0,1.30766 -0.45,2.37756 -1,2.37756 -0.55,0 -1,-0.87344 -1,-1.94098 0,-3.01826 -1.61711,-3.34635 -7.27247,-1.47552 -5.93881,1.9646 -34.06861,16.14462 -34.5305,17.40657 -0.16663,0.45526 1.18337,1.14958 3,1.54294 4.28582,0.928 13.48276,5.6563 17.30297,8.89574 3.86985,3.28155 6.89332,2.99873 7.31697,-0.68444 z m 42.93906,0.50569 c 0.28283,-0.86095 -0.84189,-1.25 -3.61368,-1.25 -3.92153,0 -5.78781,1.0212 -4.4009,2.40811 1.12558,1.12559 7.5703,0.19432 8.01458,-1.15811 z m 56.04397,0.55 c 1.88759,-1.88759 1.40261,-2.9788 -0.8,-1.8 -1.1,0.5887 -2,1.50453 -2,2.03518 0,1.32439 1.35417,1.21065 2.8,-0.23518 z m 203.18343,176.89649 -1.94911,-3.3035 -17.10094,-0.27 c -9.40551,-0.1485 -19.42573,-0.69135 -22.26716,-1.20634 -2.84142,-0.51498 -6.84869,-1.21548 -8.90504,-1.55666 -2.90047,-0.48123 -5.23011,-2.1448 -10.38963,-7.41907 -10.75621,-10.99546 -10.50251,-9.65076 -11.40306,-60.44092 -0.76404,-43.09091 -1.46049,-56.01299 -3.1335,-58.13952 -0.49307,-0.62673 -1.17111,-6.26386 -1.50676,-12.52695 -0.64751,-12.08237 0.10186,-15.26081 4.81605,-20.42705 1.05068,-1.15143 2.91054,-4.07643 4.13302,-6.5 2.00796,-3.98076 2.60915,-4.43578 6.2227,-4.7098 2.2,-0.16682 8.275,-1.25231 13.5,-2.41219 6.96071,-1.54519 15.11316,-2.31275 30.5,-2.87158 11.55,-0.41948 27.975,-1.24418 36.5,-1.83266 8.525,-0.58848 25.85,-1.35226 38.5,-1.69728 27.66926,-0.75465 31.80251,0.0137 39.67223,7.3749 l 4.82777,4.51581 v 8.47008 c 0,9.6256 1.92594,19.35582 5.98873,30.25624 1.53746,4.125 3.0906,9.075 3.4514,11 0.36081,1.925 1.97631,8 3.59,13.5 10.56106,35.99572 11.92242,42.77774 11.94347,59.5 0.0105,8.32335 -0.34819,11.04794 -1.73019,13.14324 -3.0077,4.56007 -15.75165,14.5012 -20.79083,16.21822 -2.63273,0.89706 -5.49909,2.27046 -6.36969,3.05199 -1.91179,1.71623 -22.3686,10.09237 -26.58289,10.8845 -1.65,0.31014 -5.925,1.33631 -9.5,2.28037 -7.2291,1.90901 -32.65491,2.58457 -39.22646,1.04223 -3.47143,-0.81474 -3.79607,-0.6915 -4.74364,1.8008 -1.22263,3.21577 -6.31866,5.57865 -12.03151,5.57865 -3.5406,0 -4.31763,-0.42676 -6.01496,-3.30351 z m 12.93615,0.0388 c 2.90292,-1.48202 6.04726,-6.75055 7.30218,-12.23526 5.91513,-25.85244 6.66704,-32.11896 6.71933,-56 0.0452,-20.62673 -0.85464,-29.90225 -3.61288,-37.24251 -1.26871,-3.37631 -1.49276,-6.84726 -1.09734,-17 0.27328,-7.01662 1.03373,-13.89264 1.68988,-15.28004 1.26591,-2.67669 5.12648,-5.28343 14.07925,-9.50662 9.59697,-4.52707 11.42484,-5.46692 14.73996,-7.57901 2.82518,-1.79994 5.51361,-2.15525 21,-2.77541 14.59593,-0.5845 18.47268,-1.05908 21.76004,-2.66381 3.82732,-1.86831 4.01302,-2.17846 4.30163,-7.18431 0.27724,-4.80881 0.0244,-5.50892 -3.12779,-8.66112 -6.99921,-6.99921 -7.5512,-7.11462 -33.67384,-7.04042 -12.925,0.0367 -32.275,0.65356 -43,1.37078 -10.725,0.71722 -28.05,1.48832 -38.5,1.71355 -10.45,0.22524 -19.9,0.78417 -21,1.24208 -2.69594,1.12224 -18.6088,4.10681 -21.89649,4.10681 -6.34033,0 -9.19733,14.47839 -4.01903,20.36724 3.18203,3.61866 7.34899,4.57897 19.99874,4.6089 12.22613,0.0289 20.71819,1.61006 25.28219,4.70727 1.87753,1.27413 4.45768,2.31659 5.73367,2.31659 2.76464,0 6.98824,4.1434 9.17421,9 2.41623,5.36816 3.59464,21.91664 3.59607,50.5 9.3e-4,18.38115 -0.3676,27.02561 -1.25761,29.5 -0.77163,2.14524 -1.45717,11.24148 -1.77108,23.5 l -0.51216,20 4.16482,5.75 c 3.77313,5.20922 4.51007,5.74861 7.83575,5.73526 2.019,-0.008 4.75973,-0.57061 6.0905,-1.25 z m -196.62565,-6.42053 c -1.58988,-2.43632 -1.77085,-4.97077 -1.59103,-22.28187 0.17386,-16.73788 0.64839,-22.1085 3.31626,-37.53286 1.71235,-9.9 3.36779,-19.6875 3.67877,-21.75 0.31097,-2.0625 1.00494,-3.75 1.54215,-3.75 0.5372,0 0.73045,1.0125 0.42944,2.25 -2.45952,10.1114 -3.45856,34.62169 -2.31713,56.84829 0.83702,16.29897 -0.0562,26.98258 -2.37574,28.41614 -0.48883,0.30211 -1.69606,-0.68775 -2.68272,-2.1997 z M 1009.32,419.024 c -2.75,-0.70986 -6.9691,-2.02159 -9.37575,-2.91496 -3.20797,-1.19083 -7.87822,-1.628 -17.5,-1.63815 -21.15859,-0.0223 -52.40765,-1.79734 -62.12427,-3.52882 -4.95,-0.88208 -11.7,-2.53968 -15,-3.68355 -3.3,-1.14387 -8.7,-2.95774 -12,-4.03082 -3.3,-1.07307 -8.50328,-2.97984 -11.56285,-4.23726 -3.05957,-1.25741 -8.16461,-2.82633 -11.34453,-3.48648 -3.17991,-0.66015 -7.42663,-1.89742 -9.43714,-2.74949 -2.01051,-0.85207 -6.58048,-2.34132 -10.15548,-3.30943 -8.35837,-2.26346 -20.07262,-6.73733 -22,-8.40218 -0.825,-0.71262 -5.325,-2.75015 -10,-4.52784 -4.675,-1.77769 -12.1,-4.96101 -16.5,-7.07405 -4.4,-2.11304 -11.40255,-4.97523 -15.56122,-6.36043 -4.15867,-1.38519 -8.88367,-3.20815 -10.5,-4.05101 -1.61633,-0.84286 -3.67643,-1.53525 -4.578,-1.53864 -0.90156,-0.003 -2.70156,-0.93467 -4,-2.0695 l -2.36078,-2.06335 3.9986,0.6553 c 2.19922,0.36041 6.57316,1.73891 9.71986,3.06334 3.1467,1.32443 6.18898,2.40805 6.76062,2.40805 1.37244,0 19.94282,7.9289 22.57441,9.63848 1.12942,0.73371 4.71531,2.24982 7.96864,3.36913 3.25333,1.11931 9.07926,3.57407 12.94651,5.45501 9.27216,4.50977 19.45501,8.53738 21.58471,8.53738 0.93969,0 4.75178,1.14548 8.47131,2.5455 3.71953,1.40003 9.51061,3.16074 12.86906,3.9127 3.35846,0.75195 8.80628,2.52079 12.10628,3.93076 3.3,1.40996 6.74555,2.57425 7.65678,2.5873 0.91123,0.0131 4.73623,1.42202 8.5,3.13104 3.76377,1.70901 9.31822,3.46422 12.34322,3.90047 3.025,0.43625 8.2,1.2788 11.5,1.87233 7.30045,1.31306 41.12046,3.08711 59.21298,3.10606 10.52695,0.011 14.18612,0.39502 18.00004,1.8889 7.5724,2.96607 18.7964,4.66951 21.7876,3.30663 1.9564,-0.89142 2.4994,-0.86106 2.4994,0.13975 0,3.78065 -6.8688,4.70392 -16.5,2.21783 z m 2.5,-16.65656 c -6.875,-0.4575 -14.07502,-1.25555 -16.00002,-1.77344 -1.925,-0.51789 -5.525,-1.24278 -8,-1.61086 -2.475,-0.36808 -9.675,-2.36809 -16,-4.44447 -6.325,-2.07638 -16.9,-4.99301 -23.5,-6.48141 -6.6,-1.4884 -14.025,-3.32076 -16.5,-4.07191 -2.475,-0.75115 -7.875,-1.65539 -12,-2.00942 -4.125,-0.35404 -9.525,-1.28042 -12,-2.05864 -7.11937,-2.23854 -15.93385,-4.46865 -23.24917,-5.88217 -3.71204,-0.71726 -7.31204,-1.7562 -8,-2.30875 -0.68795,-0.55255 -2.82583,-1.2616 -4.75083,-1.57568 -1.925,-0.31408 -5.075,-0.8292 -7,-1.14472 -1.925,-0.31552 -6.875,-1.05343 -11,-1.63979 -4.125,-0.58636 -8.85,-1.65109 -10.5,-2.36605 -3.68282,-1.59582 -11.74193,-3.51512 -14.76435,-3.51619 -2.64877,-9.3e-4 -13.97299,-5.20662 -18.23565,-8.38283 -1.65,-1.22945 -4.89741,-3.20601 -7.21648,-4.39235 -2.31906,-1.18634 -5.98713,-3.92764 -8.15128,-6.09179 -2.16414,-2.16414 -4.99172,-4.21998 -6.28352,-4.56853 -1.2918,-0.34855 -3.92372,-1.05641 -5.84872,-1.57303 -1.925,-0.51662 -6.0875,-1.43277 -9.25,-2.03589 -3.80611,-0.72587 -5.75,-1.57972 -5.75,-2.52569 0,-2.1133 6.91296,-1.82398 12.37654,0.51798 2.49829,1.07089 6.23526,2.26467 8.30437,2.65284 2.53507,0.47558 5.42602,2.2795 8.8641,5.5311 2.80615,2.65393 7.18785,5.74797 9.73712,6.87563 2.54927,1.12766 4.91145,2.49755 5.2493,3.0442 0.33784,0.54665 3.30386,2.35161 6.59113,4.01102 5.51385,2.78338 9.69142,4.01036 18.87744,5.54445 1.925,0.32148 4.85,1.16872 6.5,1.88276 1.65,0.71404 6.375,1.82766 10.5,2.47472 13.81666,2.16733 23.36759,4.09679 24.43833,4.937 0.58392,0.45819 3.50201,1.14378 6.48464,1.52353 2.98264,0.37975 6.35764,1.19497 7.5,1.8116 3.33732,1.80145 16.41556,4.84518 25.07703,5.83625 4.4,0.50346 10.475,1.5889 13.5,2.4121 3.025,0.82319 11.35,2.89327 18.5,4.60017 7.15,1.70689 17.58828,4.63617 23.19617,6.5095 5.60789,1.87333 11.27388,3.40605 12.59107,3.40605 1.31719,0 4.55014,0.64863 7.18433,1.44141 2.63418,0.79277 10.69325,1.71859 17.90895,2.05737 15.6149,0.73313 17.6195,1.07675 17.6195,3.02027 0,0.91142 -0.8653,1.42606 -2.25,1.33822 -1.2375,-0.0785 -7.875,-0.51706 -14.75,-0.97456 z M 388.81998,380.48473 c 0,-0.55 0.47656,-1 1.05902,-1 0.58246,0 0.7809,0.45 0.44098,1 -0.33992,0.55 -0.81648,1 -1.05902,1 -0.24254,0 -0.44098,-0.45 -0.44098,-1 z m 515.5,-34.38323 c -1.65,-0.79369 -5.38236,-3.68025 -8.29414,-6.41457 l -5.29414,-4.9715 0.29414,-7.82723 c 0.29333,-7.80564 0.30241,-7.82895 3.29414,-8.4513 1.65,-0.34324 5.025,-1.67129 7.5,-2.95122 3.58374,-1.85332 6.59597,-2.42284 14.79394,-2.79709 9.78851,-0.44686 10.41931,-0.35292 12.84732,1.9131 1.40436,1.31067 3.3617,3.95804 4.34965,5.88304 0.98795,1.925 2.79279,4.4 4.01077,5.5 3.38354,3.05581 7.15656,11.22522 6.80571,14.73586 -0.45585,4.56138 -5.13794,5.8744 -22.80739,6.39597 -11.27434,0.3328 -15.16738,0.10699 -17.5,-1.01506 z m 34.26991,-3.99779 c 1.77655,-0.91869 3.23009,-2.13113 3.23009,-2.69432 0,-1.7159 -3.07276,-7.20087 -6.40025,-11.42466 -1.73316,-2.2 -4.26463,-5.69896 -5.62548,-7.77546 -2.99836,-4.57516 -4.93197,-5.15031 -14.99597,-4.46051 -6.28651,0.43089 -9.03913,1.18716 -14.14207,3.8855 l -6.33623,3.35047 -0.31304,4.95198 c -0.30232,4.78236 -0.14818,5.10472 4.5,9.41132 7.80344,7.22998 8.1221,7.32351 23.33295,6.84836 10.02258,-0.31308 14.35547,-0.85442 16.75,-2.09268 z"
         id="path5959" />
      <path
         style="fill:#9e6703"
         d="m 312.31998,502.97694 c -7.23833,-1.52855 -32.23061,-11.7619 -38.5,-15.76421 -2.475,-1.58001 -3.825,-2.64211 -3,-2.36022 0.825,0.28189 5.325,1.72498 10,3.20686 4.675,1.48189 14.35,4.63152 21.5,6.99919 13.75979,4.55646 26.27789,6.42617 43.02445,6.42617 9.79024,0 13.36796,-1.07464 19.97555,-6.00008 4.24202,-3.16208 5.35106,-4.72286 7.31576,-10.29564 2.38495,-6.76482 4.31881,-9.35718 6.14044,-8.23135 1.91527,1.1837 1.07411,6.95967 -1.94203,13.33523 -2.87882,6.0853 -3.24091,6.42526 -10.24921,9.62308 l -7.26496,3.31492 -20.5,0.50656 c -14.4926,0.35811 -22.25826,0.13525 -26.5,-0.76051 z m -65.70155,-27.40118 c -13.44214,-5.44913 -22.01436,-10.75702 -24.82978,-15.37453 -2.16081,-3.54388 -2.49085,-12.4539 -1.06371,-28.7165 0.41025,-4.675 0.56046,-9.03869 0.33379,-9.6971 -0.22667,-0.6584 -2.96062,-1.6816 -6.07544,-2.27377 -3.11482,-0.59217 -8.81331,-1.95796 -12.66331,-3.03508 -5.96684,-1.66935 -7.63313,-2.66211 -11.28968,-6.72623 -9.98227,-11.09491 -11.82315,-17.5283 -13.29207,-46.45211 -0.94324,-18.57287 -0.88387,-20.93855 0.58158,-23.17511 2.06335,-3.14906 13.33429,-10.00271 20.5162,-12.47551 3.01618,-1.0385 9.19647,-3.75551 13.73397,-6.0378 l 8.25,-4.14961 0.11688,-6.73884 c 0.0643,-3.70636 0.40179,-9.54691 0.75,-12.979 l 0.63312,-6.24015 19.5,-9.62139 c 10.725,-5.29177 23.55,-11.17404 28.5,-13.07171 4.95,-1.89768 9.93338,-4.3266 11.07419,-5.3976 1.1408,-1.07101 2.32468,-1.69679 2.63084,-1.39062 0.5298,0.52979 20.52008,-5.52383 25.79497,-7.81145 3.03725,-1.3172 3.89076,-1.41439 21.5,-2.44836 7.7,-0.45212 14.53141,-1.1571 15.1809,-1.56661 0.6495,-0.40952 1.46356,-0.28723 1.80902,0.27174 0.34546,0.55897 1.76901,1.01631 3.16344,1.01631 4.93599,0 28.90254,5.28326 32.72732,7.21451 8.93376,4.51093 18.45897,18.90004 18.81707,28.42573 0.0988,2.62847 -0.6451,4.2261 -3.1909,6.85269 -2.42068,2.49751 -3.04576,3.77475 -2.30805,4.71609 1.76843,2.25661 3.61195,19.36649 3.01917,28.02129 -0.31151,4.54833 -1.37531,10.26251 -2.36398,12.69817 -1.66897,4.11163 -1.84613,4.25472 -2.47611,2 -0.37319,-1.33566 -0.72598,-7.15348 -0.78399,-12.92848 -0.11479,-11.42714 -1.46451,-21.77062 -3.0474,-23.35351 -0.66798,-0.66798 -5.25019,1.04072 -13.77374,5.13619 -12.19754,5.86079 -30.29112,11.91907 -44.27275,14.82387 -9.64452,2.00372 -32.21026,2.85645 -40.61856,1.53492 -3.9152,-0.61535 -10.3932,-2.45145 -14.39555,-4.08021 -7.85554,-3.19684 -20.7441,-11.2676 -21.61404,-13.53461 -0.96209,-2.50717 -10.89111,-8.58057 -16.44369,-10.0583 -6.74237,-1.79437 -13.55626,-1.89935 -14.17218,-0.21835 -0.25191,0.6875 -0.18755,4.625 0.14301,8.75 l 0.60101,7.5 5,0.26131 c 7.53007,0.39354 9.5,1.04689 9.5,3.15075 0,2.36 -1.88834,3.08794 -8.01036,3.08794 -5.12571,0 -8.06665,1.79632 -7.89364,4.82143 0.0528,0.92321 0.6157,3.91548 1.25089,6.64948 1.23003,5.29429 3.73092,7.47049 8.65311,7.52966 1.375,0.0165 3.175,0.47316 4,1.01474 1.33333,0.87528 1.33333,1.0941 0,1.96938 -0.825,0.54158 -2.625,1.0232 -4,1.07028 -6.38605,0.21866 -6.36204,0.16231 -8.11769,19.04562 -0.88972,9.56968 -1.25481,18.10578 -0.8113,18.96912 0.44351,0.86334 2.64041,2.17499 4.882,2.91478 8.28553,2.73447 7.91506,6.62796 -0.53615,5.63468 -4.42901,-0.52054 -5.48451,-0.33259 -6.33524,1.12811 -0.91461,1.57038 -1.02397,1.52076 -1.05121,-0.47696 -0.0219,-1.60354 -1.22389,-2.83598 -4.28041,-4.38876 -6.4707,-3.28725 -16.48431,-10.6997 -18.7468,-13.87707 -2.97808,-4.18232 -3.40642,-8.10563 -1.5734,-14.41101 2.20305,-7.57823 8.01601,-13.5631 16.05735,-16.53222 3.29293,-1.21585 6.27992,-2.68436 6.63775,-3.26335 0.35784,-0.57899 0.4482,-2.90788 0.20081,-5.17531 -1.06946,-9.80188 -1.78996,-10.29869 -8.89618,-6.13417 -2.3354,1.36864 -7.54993,3.67132 -11.58786,5.11707 -10.22595,3.66134 -17.52064,8.1982 -19.33737,12.02669 -1.08819,2.29318 -1.50236,6.58595 -1.49729,15.51894 0.0149,26.33235 8.34941,44.51607 22.76584,49.66932 5.99523,2.14303 14.40129,3.75526 17.61044,3.37755 1.0358,-0.12191 2.3858,0.17162 3,0.65229 0.61419,0.48066 2.35421,1.16956 3.86671,1.53087 3.73366,0.89193 3.45621,2.23067 -0.75,3.61884 l -3.5,1.1551 v 17.3668 17.3668 l 3.25,3.39795 c 5.74759,6.00925 12.2647,10.62758 22.87838,16.21269 5.70439,3.00175 9.92162,5.43017 9.37162,5.39648 -0.55,-0.0337 -6.2657,-2.19585 -12.70155,-4.80479 z m -23.65544,-95.34103 c 0.19635,-0.6875 0.2217,-8.13537 0.0564,-16.55082 -0.34664,-17.64163 -0.45574,-17.8261 -8.35438,-14.12657 -6.17933,2.89422 -9.84503,8.45901 -9.84503,14.94536 0,3.89267 0.4918,4.8003 4.75,8.76617 4.15723,3.87184 10.47874,8.04009 12.39301,8.17166 0.35366,0.0243 0.80366,-0.5183 1,-1.2058 z m 92.85699,-57.54372 c 0,-0.91013 -7.74313,-2.54781 -19.88786,-4.20631 -4.61333,-0.63001 -11.92459,-2.16984 -16.24725,-3.42186 -5.373,-1.55624 -7.51143,-1.85714 -6.7595,-0.95113 1.87556,2.25992 13.68688,7.35351 19.17348,8.2685 6.72909,1.12219 23.72113,1.34483 23.72113,0.3108 z m 45.27128,-8.63369 c 8.85636,-4.03598 10.32402,-5.57259 5.32253,-5.57259 -2.42326,0 -4.55038,0.88133 -6.80901,2.82116 -1.80664,1.55164 -4.39743,3.57664 -5.75731,4.5 -3.97061,2.69606 -0.8635,1.94604 7.24379,-1.74857 z m -27.19628,0.90241 c -0.0412,-0.53625 -0.525,-0.93 -1.075,-0.875 -5.77139,0.57714 -5.68951,0.53908 -3,1.3946 2.98687,0.95012 4.17639,0.79844 4.075,-0.5196 z m -71.275,-12.675 c 1.80472,-1.80472 1.46379,-5.77987 -0.55,-6.41274 -5.56271,-1.74818 -6.4685,-2.41906 -5.24939,-3.88799 0.66226,-0.79798 3.74556,-2.60429 6.85175,-4.01402 3.1062,-1.40973 6.54565,-3.06845 7.64321,-3.68604 1.09757,-0.61759 7.98954,-3.0554 15.3155,-5.41737 13.2205,-4.26244 13.48922,-4.30357 36.00442,-5.51113 22.25631,-1.19368 22.82608,-1.17515 30.18451,0.98163 11.20348,3.28379 18.87858,7.56821 23.75,13.25783 3.75165,4.38177 4.25,5.5408 4.25,9.88436 v 4.92054 l 6.25,-2.94835 c 3.56738,-1.68287 6.4089,-3.70343 6.62021,-4.70754 0.20362,-0.96755 0.99112,-2.64681 1.75,-3.73169 5.36565,-7.67058 -7.30312,-27.29538 -20.87355,-32.33456 -5.52044,-2.04993 -26.45481,-5.49133 -27.91493,-4.58893 -0.46906,0.28989 -6.13558,0.68858 -12.59228,0.88598 -10.98052,0.3357 -19.12345,1.79536 -23.76202,4.25945 -2.29996,1.22179 -21.44621,6.97514 -26.24824,7.88748 -1.79894,0.34178 -3.513,1.01329 -3.80902,1.49225 -0.29601,0.47896 -1.60983,0.87084 -2.91959,0.87084 -3.61945,0 -16.32041,4.81296 -22.50058,8.52647 -3.025,1.81764 -8.9875,4.89217 -13.25,6.83228 -4.28785,1.95164 -7.75,4.15189 -7.75,4.92523 0,0.87479 2.01491,1.84868 5.3853,2.60294 5.06386,1.13324 15.32706,6.47708 18.57899,9.6737 1.78444,1.75409 3.24852,1.82657 4.83571,0.23938 z m 43.95603,-2.55 c 0.28283,-0.86095 -0.84189,-1.25 -3.61368,-1.25 -3.92153,0 -5.78781,1.0212 -4.4009,2.40811 1.12558,1.12559 7.5703,0.19432 8.01458,-1.15811 z m 56.04397,0.55 c 1.88759,-1.88759 1.40261,-2.9788 -0.8,-1.8 -1.1,0.5887 -2,1.50453 -2,2.03518 0,1.32439 1.35417,1.21065 2.8,-0.23518 z m 178.7,172.21348 c -10.67179,-0.38687 -18.88926,-1.13313 -20.18426,-1.83301 -1.20134,-0.64926 -3.50557,-1.18047 -5.12052,-1.18047 -2.85043,0 -3.43883,-0.47873 -12.44522,-10.12556 -0.9625,-1.03094 -2.09438,-1.87444 -2.51528,-1.87444 -1.18979,0 -4.32977,-9.65441 -4.81155,-14.79392 -0.23825,-2.54156 -0.55462,-19.26516 -0.70305,-37.16355 -0.32069,-38.6711 -1.19814,-57.20224 -2.85443,-60.28374 -1.24997,-2.32557 -1.42915,-3.92919 -1.87527,-16.7833 -0.20988,-6.04743 0.15523,-8.34067 1.85993,-11.68215 3.1091,-6.09435 4.14965,-6.19818 4.14965,-0.41408 0,4.13025 0.50872,5.55429 2.93204,8.20747 l 2.93204,3.21017 16.31796,0.82837 c 18.79692,0.9542 20.92667,1.33015 25.63484,4.52521 1.90422,1.29223 4.45871,2.34952 5.67664,2.34952 2.90855,0 7.19865,4.0604 9.24421,8.74925 2.42168,5.55102 3.56247,21.61618 3.56988,50.27293 0.005,18.79229 -0.32982,26.15081 -1.26927,27.90618 -0.86399,1.61438 -1.44494,9.21548 -1.79957,23.54557 -0.46262,18.69328 -0.32794,21.46034 1.15465,23.72306 1.53806,2.34738 1.54313,2.61338 0.0607,3.18225 -0.88972,0.34142 -1.69337,0.54562 -1.78589,0.45377 -0.0925,-0.0918 -8.26821,-0.46063 -18.16821,-0.81953 z m 49.35522,-0.51006 -4.64479,-1.50258 0.91827,-3.75042 c 6.01444,-24.56428 7.05991,-34.42612 6.59928,-62.25042 -0.34089,-20.59189 -0.71046,-25.45709 -2.31679,-30.5 -3.29674,-10.3498 -2.19436,-36.5 1.53869,-36.5 0.38898,0 2.69688,-1.31584 5.12868,-2.9241 2.43179,-1.60825 7.12144,-3.91488 10.42144,-5.12584 3.3,-1.21097 6.9,-2.98889 8,-3.95094 4.12695,-3.60941 6.78889,-4.13128 24.80061,-4.86207 14.00008,-0.56803 18.98474,-1.13051 21.60303,-2.43773 4.3108,-2.15223 4.09636,-2.21619 4.09636,1.22172 0,3.93766 3.83342,19.85615 5.60813,23.28806 0.7842,1.51647 2.51825,7.37729 3.85346,13.02406 1.33521,5.64676 3.11552,11.91103 3.95624,13.92059 0.84071,2.00956 2.15594,6.50956 2.92272,10 0.76678,3.49044 2.53525,10.17125 3.92993,14.84625 4.97198,16.66621 6.47604,38.94331 2.97293,44.03303 -4.08758,5.93889 -13.45282,13.42502 -19.42672,15.5288 -2.37418,0.83609 -5.89169,2.57458 -7.81669,3.8633 -4.81143,3.22108 -22.63135,9.90681 -33.45301,12.55099 -11.79762,2.88264 -32.03297,3.6814 -38.69177,1.5273 z m -208.28105,-2.17074 c -2.26803,-5.91038 -0.96385,-43.42127 1.88903,-54.33268 l 1.43803,-5.5 -0.32975,5 c -0.18135,2.75 0.13006,14.14567 0.69202,25.32372 0.77768,15.46863 0.73167,21.61999 -0.19258,25.75 -1.23899,5.53636 -2.35453,6.73555 -3.49675,3.75896 z M 1009.32,419.024 c -2.75,-0.70986 -6.9691,-2.02159 -9.37575,-2.91496 -3.20797,-1.19083 -7.87822,-1.628 -17.5,-1.63815 -21.15859,-0.0223 -52.40765,-1.79734 -62.12427,-3.52882 -4.95,-0.88208 -11.7,-2.53968 -15,-3.68355 -3.3,-1.14387 -8.7,-2.95774 -12,-4.03082 -3.3,-1.07307 -8.50328,-2.97984 -11.56285,-4.23726 -3.05957,-1.25741 -8.16461,-2.82633 -11.34453,-3.48648 -3.17991,-0.66015 -7.42663,-1.89742 -9.43714,-2.74949 -2.01051,-0.85207 -6.58048,-2.34132 -10.15548,-3.30943 -8.35837,-2.26346 -20.07262,-6.73733 -22,-8.40218 -0.825,-0.71262 -5.325,-2.75015 -10,-4.52784 -4.675,-1.77769 -12.1,-4.96101 -16.5,-7.07405 -4.4,-2.11304 -11.40255,-4.97523 -15.56122,-6.36043 -4.15867,-1.38519 -8.88367,-3.20815 -10.5,-4.05101 -1.61633,-0.84286 -3.61378,-1.54214 -4.43878,-1.55395 -0.825,-0.0118 -2.175,-0.50093 -3,-1.08694 -2.66708,-1.89445 6.73606,-0.0493 10.77178,2.11376 2.03423,1.09028 4.2625,1.98233 4.9517,1.98233 1.49497,0 16.91441,6.2684 23.27652,9.4625 2.475,1.24258 8.325,3.74704 13,5.56547 4.675,1.81843 9.07804,3.74904 9.78453,4.29024 1.99028,1.52463 17.506,7.64609 19.42796,7.66497 0.94187,0.009 4.31687,0.99948 7.5,2.20051 3.18313,1.20103 9.38751,3.18618 13.78751,4.41145 8.69591,2.42154 25.61232,8.20089 32,10.93252 2.2,0.94081 6.25,2.05858 9,2.48394 2.75,0.42536 7.475,1.26254 10.5,1.8604 6.46679,1.27808 42.02363,3.12434 60.21298,3.12649 10.2477,10e-4 13.6732,0.37999 17.66464,1.95327 2.7234,1.07347 8.8425,2.68084 13.5979,3.57192 7.2016,1.34946 8.9285,1.39929 10.3354,0.29824 1.5176,-1.18768 1.5497,-1.14421 0.3167,0.42808 -1.6508,2.10487 -8.1293,2.22479 -15.6276,0.28927 z m 2,-18.19571 c -15.44343,-1.2852 -29.11699,-3.5652 -34.50002,-5.75272 -7.54048,-3.06424 -33.52929,-10.15873 -40.46837,-11.04716 -1.91382,-0.24502 -4.32888,-0.89999 -5.36681,-1.45547 -1.03792,-0.55548 -4.53711,-1.26039 -7.77598,-1.56646 -8.20057,-0.77496 -11.57121,-1.42057 -21.88884,-4.1926 -4.95,-1.32991 -11.925,-3.10023 -15.5,-3.93404 -3.575,-0.8338 -7.4,-1.90814 -8.5,-2.38742 -1.1,-0.47927 -3.35,-1.08497 -5,-1.34599 -20.10414,-3.18034 -27.76164,-4.62686 -28.78164,-5.43691 -0.6701,-0.53217 -5.12808,-1.6808 -9.90663,-2.55252 -8.13934,-1.48481 -21.71968,-7.09628 -23.27875,-9.6189 -0.3387,-0.54803 -2.70757,-1.9217 -5.26414,-3.0526 -2.55658,-1.1309 -6.53445,-3.96932 -8.83971,-6.30762 -3.47045,-3.52016 -5.54489,-4.62397 -12.06026,-6.41724 -4.32788,-1.19119 -9.54058,-2.433 -11.58379,-2.75959 -2.04321,-0.32658 -3.98226,-1.02635 -4.30902,-1.55505 -1.05904,-1.71356 7.19898,-1.02949 11.90048,0.98581 2.49829,1.07089 6.23526,2.26467 8.30437,2.65284 2.53507,0.47558 5.42602,2.2795 8.8641,5.5311 2.80615,2.65393 7.18785,5.74797 9.73712,6.87563 2.54927,1.12766 4.91145,2.49755 5.2493,3.0442 0.33784,0.54665 3.30386,2.35161 6.59113,4.01102 5.51385,2.78338 9.69142,4.01036 18.87744,5.54445 1.925,0.32148 4.85,1.16872 6.5,1.88276 1.65,0.71404 6.375,1.82766 10.5,2.47472 13.81666,2.16733 23.36759,4.09679 24.43833,4.937 0.58392,0.45819 3.50201,1.14378 6.48464,1.52353 2.98264,0.37975 6.35764,1.19497 7.5,1.8116 3.33732,1.80145 16.41556,4.84518 25.07703,5.83625 4.4,0.50346 10.475,1.5889 13.5,2.4121 3.025,0.82319 11.35,2.89327 18.5,4.60017 7.15,1.70689 17.58828,4.63617 23.19617,6.5095 5.60789,1.87333 11.27388,3.40605 12.59107,3.40605 1.31719,0 4.55014,0.64863 7.18433,1.44141 2.63418,0.79277 10.69325,1.71859 17.90895,2.05737 14.1758,0.66556 17.6195,1.11626 17.6195,2.30599 0,0.96465 -0.5362,0.95052 -17.5,-0.46121 z M 904.31998,346.1015 c -1.65,-0.79369 -5.38236,-3.68025 -8.29414,-6.41457 l -5.29414,-4.9715 0.29414,-7.82723 c 0.29333,-7.80564 0.30241,-7.82895 3.29414,-8.4513 1.65,-0.34324 5.025,-1.67129 7.5,-2.95122 3.58374,-1.85332 6.59597,-2.42284 14.79394,-2.79709 9.78851,-0.44686 10.41931,-0.35292 12.84732,1.9131 1.40436,1.31067 3.3617,3.95804 4.34965,5.88304 0.98795,1.925 2.79279,4.4 4.01077,5.5 3.38354,3.05581 7.15656,11.22522 6.80571,14.73586 -0.45585,4.56138 -5.13794,5.8744 -22.80739,6.39597 -11.27434,0.3328 -15.16738,0.10699 -17.5,-1.01506 z m 35.25,-2.58607 c 2.44952,-0.9243 3.25,-1.83024 3.25,-3.67819 0,-3.03899 -2.27991,-7.62055 -6.39575,-12.85251 -1.73068,-2.2 -4.47309,-5.96625 -6.09424,-8.36944 l -2.94755,-4.36943 -10.53123,0.46686 c -9.0097,0.39942 -11.3981,0.88623 -16.53123,3.36944 -3.3,1.59641 -6.33061,3.35257 -6.73469,3.90257 -0.40408,0.55 -0.74158,3.50649 -0.75,6.56998 -0.0148,5.36524 0.15929,5.73246 4.73469,9.99035 7.74843,7.21072 7.13766,7.04106 23.75,6.59736 8.37138,-0.2236 16.4362,-0.94258 18.25,-1.62699 z"
         id="path5957" />
      <path
         style="fill:#aa0000"
         d="m 312.31998,502.97694 c -7.23833,-1.52855 -32.23061,-11.7619 -38.5,-15.76421 -2.475,-1.58001 -3.825,-2.64211 -3,-2.36022 0.825,0.28189 5.325,1.72498 10,3.20686 4.675,1.48189 14.35,4.63152 21.5,6.99919 13.75979,4.55646 26.27789,6.42617 43.02445,6.42617 9.79024,0 13.36796,-1.07464 19.97555,-6.00008 4.24202,-3.16208 5.35106,-4.72286 7.31576,-10.29564 2.38495,-6.76482 4.31881,-9.35718 6.14044,-8.23135 1.91527,1.1837 1.07411,6.95967 -1.94203,13.33523 -2.87882,6.0853 -3.24091,6.42526 -10.24921,9.62308 l -7.26496,3.31492 -20.5,0.50656 c -14.4926,0.35811 -22.25826,0.13525 -26.5,-0.76051 z m -65.70155,-27.40118 c -13.44214,-5.44913 -22.01436,-10.75702 -24.82978,-15.37453 -2.16081,-3.54388 -2.49085,-12.4539 -1.06371,-28.7165 0.41025,-4.675 0.56046,-9.03869 0.33379,-9.6971 -0.22667,-0.6584 -2.96062,-1.6816 -6.07544,-2.27377 -3.11482,-0.59217 -8.81331,-1.95796 -12.66331,-3.03508 -5.96684,-1.66935 -7.63313,-2.66211 -11.28968,-6.72623 -9.98227,-11.09491 -11.82315,-17.5283 -13.29207,-46.45211 -0.94324,-18.57287 -0.88387,-20.93855 0.58158,-23.17511 2.06335,-3.14906 13.33429,-10.00271 20.5162,-12.47551 3.01618,-1.0385 9.19647,-3.75551 13.73397,-6.0378 l 8.25,-4.14961 0.11688,-6.73884 c 0.0643,-3.70636 0.40179,-9.54691 0.75,-12.979 l 0.63312,-6.24015 19.5,-9.62139 c 10.725,-5.29177 23.55,-11.17404 28.5,-13.07171 4.95,-1.89768 9.93338,-4.3266 11.07419,-5.3976 1.1408,-1.07101 2.32468,-1.69679 2.63084,-1.39062 0.5298,0.52979 20.52008,-5.52383 25.79497,-7.81145 3.03725,-1.3172 3.89076,-1.41439 21.5,-2.44836 7.7,-0.45212 14.53141,-1.1571 15.1809,-1.56661 0.6495,-0.40952 1.46356,-0.28723 1.80902,0.27174 0.34546,0.55897 1.76901,1.01631 3.16344,1.01631 4.93599,0 28.90254,5.28326 32.72732,7.21451 8.93376,4.51093 18.45897,18.90004 18.81707,28.42573 0.0988,2.62847 -0.6451,4.2261 -3.1909,6.85269 -2.42068,2.49751 -3.04576,3.77475 -2.30805,4.71609 1.76843,2.25661 3.61195,19.36649 3.01917,28.02129 -0.31151,4.54833 -1.37531,10.26251 -2.36398,12.69817 -1.66897,4.11163 -1.84613,4.25472 -2.47611,2 -0.37319,-1.33566 -0.72598,-7.15348 -0.78399,-12.92848 -0.11479,-11.42714 -1.46451,-21.77062 -3.0474,-23.35351 -0.66798,-0.66798 -5.25019,1.04072 -13.77374,5.13619 -12.19754,5.86079 -30.29112,11.91907 -44.27275,14.82387 -9.64452,2.00372 -32.21026,2.85645 -40.61856,1.53492 -3.9152,-0.61535 -10.3932,-2.45145 -14.39555,-4.08021 -7.85554,-3.19684 -20.7441,-11.2676 -21.61404,-13.53461 -0.96209,-2.50717 -10.89111,-8.58057 -16.44369,-10.0583 -6.74237,-1.79437 -13.55626,-1.89935 -14.17218,-0.21835 -0.25191,0.6875 -0.18755,4.625 0.14301,8.75 l 0.60101,7.5 5,0.26131 c 7.53007,0.39354 9.5,1.04689 9.5,3.15075 0,2.36 -1.88834,3.08794 -8.01036,3.08794 -5.12571,0 -8.06665,1.79632 -7.89364,4.82143 0.0528,0.92321 0.6157,3.91548 1.25089,6.64948 1.23003,5.29429 3.73092,7.47049 8.65311,7.52966 1.375,0.0165 3.175,0.47316 4,1.01474 1.33333,0.87528 1.33333,1.0941 0,1.96938 -0.825,0.54158 -2.625,1.0232 -4,1.07028 -6.38605,0.21866 -6.36204,0.16231 -8.11769,19.04562 -0.88972,9.56968 -1.25481,18.10578 -0.8113,18.96912 0.44351,0.86334 2.64041,2.17499 4.882,2.91478 8.28553,2.73447 7.91506,6.62796 -0.53615,5.63468 -4.42901,-0.52054 -5.48451,-0.33259 -6.33524,1.12811 -0.91461,1.57038 -1.02397,1.52076 -1.05121,-0.47696 -0.0219,-1.60354 -1.22389,-2.83598 -4.28041,-4.38876 -6.4707,-3.28725 -16.48431,-10.6997 -18.7468,-13.87707 -2.97808,-4.18232 -3.40642,-8.10563 -1.5734,-14.41101 2.20305,-7.57823 8.01601,-13.5631 16.05735,-16.53222 3.29293,-1.21585 6.27992,-2.68436 6.63775,-3.26335 0.35784,-0.57899 0.4482,-2.90788 0.20081,-5.17531 -1.06946,-9.80188 -1.78996,-10.29869 -8.89618,-6.13417 -2.3354,1.36864 -7.54993,3.67132 -11.58786,5.11707 -10.22595,3.66134 -17.52064,8.1982 -19.33737,12.02669 -1.08819,2.29318 -1.50236,6.58595 -1.49729,15.51894 0.0149,26.33235 8.34941,44.51607 22.76584,49.66932 5.99523,2.14303 14.40129,3.75526 17.61044,3.37755 1.0358,-0.12191 2.3858,0.17162 3,0.65229 0.61419,0.48066 2.35421,1.16956 3.86671,1.53087 3.73366,0.89193 3.45621,2.23067 -0.75,3.61884 l -3.5,1.1551 v 17.3668 17.3668 l 3.25,3.39795 c 5.74759,6.00925 12.2647,10.62758 22.87838,16.21269 5.70439,3.00175 9.92162,5.43017 9.37162,5.39648 -0.55,-0.0337 -6.2657,-2.19585 -12.70155,-4.80479 z m -23.65544,-95.34103 c 0.19635,-0.6875 0.2217,-8.13537 0.0564,-16.55082 -0.34664,-17.64163 -0.45574,-17.8261 -8.35438,-14.12657 -6.17933,2.89422 -9.84503,8.45901 -9.84503,14.94536 0,3.89267 0.4918,4.8003 4.75,8.76617 4.15723,3.87184 10.47874,8.04009 12.39301,8.17166 0.35366,0.0243 0.80366,-0.5183 1,-1.2058 z m 117.30125,-58.49265 c 1.61935,-0.8303 5.66935,-2.30743 9,-3.28252 7.97469,-2.33469 17.28036,-6.56533 20.61746,-9.37331 1.47375,-1.24008 7.46276,-4.67367 13.30891,-7.6302 6.51945,-3.29704 10.64167,-5.97403 10.66117,-6.92342 0.0175,-0.85135 0.6925,-2.42141 1.5,-3.48903 5.61383,-7.42215 -7.15436,-27.30435 -20.78514,-32.36594 -5.52044,-2.04993 -26.45481,-5.49133 -27.91493,-4.58893 -0.46906,0.28989 -6.13558,0.68858 -12.59228,0.88598 -10.98052,0.3357 -19.12345,1.79536 -23.76202,4.25945 -2.29996,1.22179 -21.44621,6.97514 -26.24824,7.88748 -1.79894,0.34178 -3.513,1.01329 -3.80902,1.49225 -0.29601,0.47896 -1.60983,0.87084 -2.91959,0.87084 -3.61945,0 -16.32041,4.81296 -22.50058,8.52647 -3.025,1.81764 -8.9875,4.89217 -13.25,6.83228 -4.28785,1.95164 -7.75,4.15189 -7.75,4.92523 0,0.87527 2.01872,1.84953 5.40051,2.60634 6.06876,1.35813 15.62778,6.77733 21.9112,12.4219 11.1873,10.04987 21.92845,16.0908 31.29813,17.6024 2.68959,0.43391 13.89016,0.80319 24.89016,0.82063 15.9148,0.0252 20.6014,-0.27664 22.94426,-1.4779 z m 201.05574,150.75613 c -10.67179,-0.38687 -18.88926,-1.13313 -20.18426,-1.83301 -1.20134,-0.64926 -3.50557,-1.18047 -5.12052,-1.18047 -2.85043,0 -3.43883,-0.47873 -12.44522,-10.12556 -0.9625,-1.03094 -2.09438,-1.87444 -2.51528,-1.87444 -1.18979,0 -4.32977,-9.65441 -4.81155,-14.79392 -0.23825,-2.54156 -0.55462,-19.26516 -0.70305,-37.16355 -0.32069,-38.6711 -1.19814,-57.20224 -2.85443,-60.28374 -1.24997,-2.32557 -1.42915,-3.92919 -1.87527,-16.7833 -0.20988,-6.04743 0.15523,-8.34067 1.85993,-11.68215 3.1091,-6.09435 4.14965,-6.19818 4.14965,-0.41408 0,4.13025 0.50872,5.55429 2.93204,8.20747 l 2.93204,3.21017 16.31796,0.82837 c 18.79692,0.9542 20.92667,1.33015 25.63484,4.52521 1.90422,1.29223 4.45871,2.34952 5.67664,2.34952 2.90855,0 7.19865,4.0604 9.24421,8.74925 2.42168,5.55102 3.56247,21.61618 3.56988,50.27293 0.005,18.79229 -0.32982,26.15081 -1.26927,27.90618 -0.86399,1.61438 -1.44494,9.21548 -1.79957,23.54557 -0.46262,18.69328 -0.32794,21.46034 1.15465,23.72306 1.53806,2.34738 1.54313,2.61338 0.0607,3.18225 -0.88972,0.34142 -1.69337,0.54562 -1.78589,0.45377 -0.0925,-0.0918 -8.26821,-0.46063 -18.16821,-0.81953 z m 49.35522,-0.51006 -4.64479,-1.50258 0.91827,-3.75042 c 6.01444,-24.56428 7.05991,-34.42612 6.59928,-62.25042 -0.34089,-20.59189 -0.71046,-25.45709 -2.31679,-30.5 -3.29674,-10.3498 -2.19436,-36.5 1.53869,-36.5 0.38898,0 2.69688,-1.31584 5.12868,-2.9241 2.43179,-1.60825 7.12144,-3.91488 10.42144,-5.12584 3.3,-1.21097 6.9,-2.98889 8,-3.95094 4.12695,-3.60941 6.78889,-4.13128 24.80061,-4.86207 14.00008,-0.56803 18.98474,-1.13051 21.60303,-2.43773 4.3108,-2.15223 4.09636,-2.21619 4.09636,1.22172 0,3.93766 3.83342,19.85615 5.60813,23.28806 0.7842,1.51647 2.51825,7.37729 3.85346,13.02406 1.33521,5.64676 3.11552,11.91103 3.95624,13.92059 0.84071,2.00956 2.15594,6.50956 2.92272,10 0.76678,3.49044 2.53525,10.17125 3.92993,14.84625 4.97198,16.66621 6.47604,38.94331 2.97293,44.03303 -4.08758,5.93889 -13.45282,13.42502 -19.42672,15.5288 -2.37418,0.83609 -5.89169,2.57458 -7.81669,3.8633 -4.81143,3.22108 -22.63135,9.90681 -33.45301,12.55099 -11.79762,2.88264 -32.03297,3.6814 -38.69177,1.5273 z m -208.28105,-2.17074 c -2.26803,-5.91038 -0.96385,-43.42127 1.88903,-54.33268 l 1.43803,-5.5 -0.32975,5 c -0.18135,2.75 0.13006,14.14567 0.69202,25.32372 0.77768,15.46863 0.73167,21.61999 -0.19258,25.75 -1.23899,5.53636 -2.35453,6.73555 -3.49675,3.75896 z M 1024.32,401.48473 c -0.3399,-0.55 -0.1415,-1 0.441,-1 0.5824,0 1.059,0.45 1.059,1 0,0.55 -0.1984,1 -0.441,1 -0.2425,0 -0.7191,-0.45 -1.059,-1 z m -253.00002,-69 c -0.78917,-1.2769 2.52414,-1.2769 4.5,0 1.17323,0.7582 0.91378,0.97271 -1.19098,0.98469 -1.48004,0.008 -2.9691,-0.43469 -3.30902,-0.98469 z m 121,-11 c 0.33992,-0.55 0.81648,-1 1.05902,-1 0.24254,0 0.44098,0.45 0.44098,1 0,0.55 -0.47656,1 -1.05902,1 -0.58246,0 -0.7809,-0.45 -0.44098,-1 z"
         id="path5955" />
      <path
         style="fill:#000000"
         d="m 312.31998,502.97694 c -7.23833,-1.52855 -32.23061,-11.7619 -38.5,-15.76421 -2.475,-1.58001 -3.825,-2.64211 -3,-2.36022 0.825,0.28189 5.325,1.72498 10,3.20686 4.675,1.48189 14.35,4.63152 21.5,6.99919 13.75979,4.55646 26.27789,6.42617 43.02445,6.42617 9.79024,0 13.36796,-1.07464 19.97555,-6.00008 4.24202,-3.16208 5.35106,-4.72286 7.31576,-10.29564 2.38495,-6.76482 4.31881,-9.35718 6.14044,-8.23135 1.91527,1.1837 1.07411,6.95967 -1.94203,13.33523 -2.87882,6.0853 -3.24091,6.42526 -10.24921,9.62308 l -7.26496,3.31492 -20.5,0.50656 c -14.4926,0.35811 -22.25826,0.13525 -26.5,-0.76051 z m -65.70155,-27.40118 c -13.44214,-5.44913 -22.01436,-10.75702 -24.82978,-15.37453 -2.16081,-3.54388 -2.49085,-12.4539 -1.06371,-28.7165 0.41025,-4.675 0.56046,-9.03869 0.33379,-9.6971 -0.22667,-0.6584 -2.96062,-1.6816 -6.07544,-2.27377 -3.11482,-0.59217 -8.81331,-1.95796 -12.66331,-3.03508 -5.96684,-1.66935 -7.63313,-2.66211 -11.28968,-6.72623 -9.98227,-11.09491 -11.82315,-17.5283 -13.29207,-46.45211 -0.94324,-18.57287 -0.88387,-20.93855 0.58158,-23.17511 2.06335,-3.14906 13.33429,-10.00271 20.5162,-12.47551 3.01618,-1.0385 9.19647,-3.75551 13.73397,-6.0378 l 8.25,-4.14961 0.11688,-6.73884 c 0.0643,-3.70636 0.40179,-9.54691 0.75,-12.979 l 0.63312,-6.24015 19.5,-9.62139 c 10.725,-5.29177 23.55,-11.17404 28.5,-13.07171 4.95,-1.89768 9.93338,-4.3266 11.07419,-5.3976 1.1408,-1.07101 2.32468,-1.69679 2.63084,-1.39062 0.5298,0.52979 20.52008,-5.52383 25.79497,-7.81145 3.03725,-1.3172 3.89076,-1.41439 21.5,-2.44836 7.7,-0.45212 14.53141,-1.1571 15.1809,-1.56661 0.6495,-0.40952 1.46356,-0.28723 1.80902,0.27174 0.34546,0.55897 1.76901,1.01631 3.16344,1.01631 4.93599,0 28.90254,5.28326 32.72732,7.21451 8.93376,4.51093 18.45897,18.90004 18.81707,28.42573 0.0988,2.62847 -0.6451,4.2261 -3.1909,6.85269 -2.42068,2.49751 -3.04576,3.77475 -2.30805,4.71609 1.76843,2.25661 3.61195,19.36649 3.01917,28.02129 -0.31151,4.54833 -1.37531,10.26251 -2.36398,12.69817 -1.66897,4.11163 -1.84613,4.25472 -2.47611,2 -0.37319,-1.33566 -0.72598,-7.15348 -0.78399,-12.92848 -0.11479,-11.42714 -1.46451,-21.77062 -3.0474,-23.35351 -0.66798,-0.66798 -5.25019,1.04072 -13.77374,5.13619 -12.19754,5.86079 -30.29112,11.91907 -44.27275,14.82387 -9.64452,2.00372 -32.21026,2.85645 -40.61856,1.53492 -3.9152,-0.61535 -10.3932,-2.45145 -14.39555,-4.08021 -7.85554,-3.19684 -20.7441,-11.2676 -21.61404,-13.53461 -0.96209,-2.50717 -10.89111,-8.58057 -16.44369,-10.0583 -6.74237,-1.79437 -13.55626,-1.89935 -14.17218,-0.21835 -0.25191,0.6875 -0.18755,4.625 0.14301,8.75 l 0.60101,7.5 5,0.26131 c 7.53007,0.39354 9.5,1.04689 9.5,3.15075 0,2.36 -1.88834,3.08794 -8.01036,3.08794 -5.12571,0 -8.06665,1.79632 -7.89364,4.82143 0.0528,0.92321 0.6157,3.91548 1.25089,6.64948 1.23003,5.29429 3.73092,7.47049 8.65311,7.52966 1.375,0.0165 3.175,0.47316 4,1.01474 1.33333,0.87528 1.33333,1.0941 0,1.96938 -0.825,0.54158 -2.625,1.0232 -4,1.07028 -6.38605,0.21866 -6.36204,0.16231 -8.11769,19.04562 -0.88972,9.56968 -1.25481,18.10578 -0.8113,18.96912 0.44351,0.86334 2.64041,2.17499 4.882,2.91478 8.28553,2.73447 7.91506,6.62796 -0.53615,5.63468 -4.42901,-0.52054 -5.48451,-0.33259 -6.33524,1.12811 -0.91461,1.57038 -1.02397,1.52076 -1.05121,-0.47696 -0.0219,-1.60354 -1.22389,-2.83598 -4.28041,-4.38876 -6.4707,-3.28725 -16.48431,-10.6997 -18.7468,-13.87707 -2.97808,-4.18232 -3.40642,-8.10563 -1.5734,-14.41101 2.20305,-7.57823 8.01601,-13.5631 16.05735,-16.53222 3.29293,-1.21585 6.27992,-2.68436 6.63775,-3.26335 0.35784,-0.57899 0.4482,-2.90788 0.20081,-5.17531 -1.06946,-9.80188 -1.78996,-10.29869 -8.89618,-6.13417 -2.3354,1.36864 -7.54993,3.67132 -11.58786,5.11707 -10.22595,3.66134 -17.52064,8.1982 -19.33737,12.02669 -1.08819,2.29318 -1.50236,6.58595 -1.49729,15.51894 0.0149,26.33235 8.34941,44.51607 22.76584,49.66932 5.99523,2.14303 14.40129,3.75526 17.61044,3.37755 1.0358,-0.12191 2.3858,0.17162 3,0.65229 0.61419,0.48066 2.35421,1.16956 3.86671,1.53087 3.73366,0.89193 3.45621,2.23067 -0.75,3.61884 l -3.5,1.1551 v 17.3668 17.3668 l 3.25,3.39795 c 5.74759,6.00925 12.2647,10.62758 22.87838,16.21269 5.70439,3.00175 9.92162,5.43017 9.37162,5.39648 -0.55,-0.0337 -6.2657,-2.19585 -12.70155,-4.80479 z m -23.65544,-95.34103 c 0.19635,-0.6875 0.2217,-8.13537 0.0564,-16.55082 -0.34664,-17.64163 -0.45574,-17.8261 -8.35438,-14.12657 -6.17933,2.89422 -9.84503,8.45901 -9.84503,14.94536 0,3.89267 0.4918,4.8003 4.75,8.76617 4.15723,3.87184 10.47874,8.04009 12.39301,8.17166 0.35366,0.0243 0.80366,-0.5183 1,-1.2058 z m 117.30125,-58.49265 c 1.61935,-0.8303 5.66935,-2.30743 9,-3.28252 7.97469,-2.33469 17.28036,-6.56533 20.61746,-9.37331 1.47375,-1.24008 7.46276,-4.67367 13.30891,-7.6302 6.51945,-3.29704 10.64167,-5.97403 10.66117,-6.92342 0.0175,-0.85135 0.6925,-2.42141 1.5,-3.48903 5.61383,-7.42215 -7.15436,-27.30435 -20.78514,-32.36594 -5.52044,-2.04993 -26.45481,-5.49133 -27.91493,-4.58893 -0.46906,0.28989 -6.13558,0.68858 -12.59228,0.88598 -10.98052,0.3357 -19.12345,1.79536 -23.76202,4.25945 -2.29996,1.22179 -21.44621,6.97514 -26.24824,7.88748 -1.79894,0.34178 -3.513,1.01329 -3.80902,1.49225 -0.29601,0.47896 -1.60983,0.87084 -2.91959,0.87084 -3.61945,0 -16.32041,4.81296 -22.50058,8.52647 -3.025,1.81764 -8.9875,4.89217 -13.25,6.83228 -4.28785,1.95164 -7.75,4.15189 -7.75,4.92523 0,0.87527 2.01872,1.84953 5.40051,2.60634 6.06876,1.35813 15.62778,6.77733 21.9112,12.4219 11.1873,10.04987 21.92845,16.0908 31.29813,17.6024 2.68959,0.43391 13.89016,0.80319 24.89016,0.82063 15.9148,0.0252 20.6014,-0.27664 22.94426,-1.4779 z m 203.55574,150.75674 -15.5,-0.56534 15,-0.47437 15,-0.47438 0.53677,-17 0.53677,-17 0.24503,15.5 c 0.18628,11.78318 0.59709,15.96545 1.71316,17.44103 1.15274,1.52406 1.19962,2.11152 0.2182,2.73469 -0.68746,0.43651 -1.47493,0.70591 -1.74993,0.59868 -0.275,-0.10724 -7.475,-0.44938 -16,-0.76031 z m 55.78352,0.24751 c 2.90594,-0.20265 7.40594,-0.20052 10,0.005 2.59406,0.20525 0.21648,0.37104 -5.28352,0.36844 -5.5,-0.003 -7.62242,-0.17053 -4.71648,-0.37317 z m 17.97814,-0.96886 c 1.24391,-0.23919 3.04391,-0.23011 4,0.0202 0.95609,0.25029 -0.0617,0.446 -2.26166,0.4349 -2.2,-0.0111 -2.98225,-0.21589 -1.73834,-0.45508 z m -235.18749,-1.96006 c -2.26803,-5.91038 -0.96385,-43.42127 1.88903,-54.33268 l 1.43803,-5.5 -0.32975,5 c -0.18135,2.75 0.13006,14.14567 0.69202,25.32372 0.77768,15.46863 0.73167,21.61999 -0.19258,25.75 -1.23899,5.53636 -2.35453,6.73555 -3.49675,3.75896 z m 140.69486,0.97433 c 0.97297,-0.25354 2.32297,-0.23687 3,0.0371 0.67703,0.27393 -0.11903,0.48137 -1.76903,0.46099 -1.65,-0.0204 -2.20394,-0.2445 -1.23097,-0.49804 z m 64.18909,-0.0723 c -0.60203,-0.42452 -0.75752,-2.00122 -0.36832,-3.73469 0.62902,-2.80159 0.6814,-2.83135 0.79189,-0.45 0.0651,1.4025 0.65831,3.09 1.31831,3.75 1.29964,1.29964 -0.0409,1.63417 -1.74188,0.43469 z m -74.84629,-2.05375 c -0.27841,-0.45048 0.82003,-0.6244 2.44098,-0.3865 1.62096,0.23791 2.94719,0.60648 2.94719,0.81906 0,0.76198 -4.89266,0.3692 -5.38817,-0.43256 z m 123.6572,-0.87393 c 0.97297,-0.25354 2.32297,-0.23687 3,0.0371 0.67703,0.27393 -0.11903,0.48137 -1.76903,0.46099 -1.65,-0.0204 -2.20394,-0.2445 -1.23097,-0.49804 z m -47.19008,-9.89034 c 0.048,-1.16495 0.28494,-1.4019 0.60416,-0.60417 0.28887,0.72187 0.25335,1.58438 -0.0789,1.91667 -0.33229,0.33229 -0.56864,-0.25834 -0.52522,-1.3125 z m 1.07894,-5.41669 c 0,-1.375 0.22698,-1.9375 0.50439,-1.25 0.27741,0.6875 0.27741,1.8125 0,2.5 -0.27741,0.6875 -0.50439,0.125 -0.50439,-1.25 z m 86.34211,-2 c 0.99549,-1.1 2.03498,-2 2.30998,-2 0.275,0 -0.31449,0.9 -1.30998,2 -0.99549,1.1 -2.03498,2 -2.30998,2 -0.275,0 0.31449,-0.9 1.30998,-2 z m -85.42105,-3.58333 c 0.048,-1.16495 0.28494,-1.4019 0.60416,-0.60417 0.28887,0.72187 0.25335,1.58438 -0.0789,1.91667 -0.33229,0.33229 -0.56864,-0.25834 -0.52522,-1.3125 z m 2.17323,-9.91667 c 0.0111,-2.2 0.21589,-2.98225 0.45508,-1.73834 0.23919,1.24391 0.23011,3.04391 -0.0202,4 -0.25029,0.95609 -0.446,-0.0617 -0.4349,-2.26166 z m 98.12599,-11.5 c 0,-6.325 0.16237,-8.9125 0.36082,-5.75 0.19845,3.1625 0.19845,8.3375 0,11.5 -0.19845,3.1625 -0.36082,0.575 -0.36082,-5.75 z m -131.09216,4.5 c 0.008,-2.75 0.20172,-3.75631 0.43157,-2.23625 0.22986,1.52006 0.22371,3.77006 -0.0136,5 -0.23736,1.22994 -0.42542,-0.0138 -0.41792,-2.76375 z m 34.14278,-21 c 7e-4,-12.65 0.14401,-17.68711 0.31847,-11.19358 0.17445,6.49353 0.17388,16.84353 -10e-4,23 -0.17516,6.15647 -0.31789,0.84358 -0.31719,-11.80642 z m -32.11892,7 c 0.006,-3.3 0.1923,-4.52944 0.41486,-2.73209 0.22256,1.79735 0.21797,4.49735 -0.0102,6 -0.22818,1.50265 -0.41027,0.0321 -0.40466,-3.26791 z m 127.84802,-6.5 c 0,-1.375 0.22698,-1.9375 0.50439,-1.25 0.27741,0.6875 0.27741,1.8125 0,2.5 -0.27741,0.6875 -0.50439,0.125 -0.50439,-1.25 z m -126.7377,-20.5 c -8.9e-4,-11 0.14522,-15.63644 0.32467,-10.30319 0.17945,5.33324 0.18018,14.33324 0.002,20 -0.17857,5.66675 -0.3254,1.30319 -0.32628,-9.69681 z m 461.07983,12.5 c -0.3399,-0.55 -0.1415,-1 0.441,-1 0.5824,0 1.059,0.45 1.059,1 0,0.55 -0.1984,1 -0.441,1 -0.2425,0 -0.7191,-0.45 -1.059,-1 z m -431.34213,-19 c 0,-1.375 0.22698,-1.9375 0.50439,-1.25 0.27741,0.6875 0.27741,1.8125 0,2.5 -0.27741,0.6875 -0.50439,0.125 -0.50439,-1.25 z m -1.07894,-5.58333 c 0.048,-1.16495 0.28494,-1.4019 0.60416,-0.60417 0.28887,0.72187 0.25335,1.58438 -0.0789,1.91667 -0.33229,0.33229 -0.56864,-0.25834 -0.52522,-1.3125 z m 90,0 c 0.048,-1.16495 0.28494,-1.4019 0.60416,-0.60417 0.28887,0.72187 0.25335,1.58438 -0.0789,1.91667 -0.33229,0.33229 -0.56864,-0.25834 -0.52522,-1.3125 z m -92.71372,-18.91667 c 0.003,-5.5 0.17053,-7.62242 0.37317,-4.71648 0.20265,2.90594 0.20052,7.40594 -0.005,10 -0.20498,2.59406 -0.37077,0.21648 -0.36817,-5.28352 z m -28.01582,-0.5 c 0,-4.675 0.17226,-6.5875 0.3828,-4.25 0.21053,2.3375 0.21053,6.1625 0,8.5 -0.21054,2.3375 -0.3828,0.425 -0.3828,-4.25 z m 28.80848,-14 c 0,-1.375 0.22698,-1.9375 0.50439,-1.25 0.27741,0.6875 0.27741,1.8125 0,2.5 -0.27741,0.6875 -0.50439,0.125 -0.50439,-1.25 z m -39.34539,-7.68311 c 0.72187,-0.28887 1.58438,-0.25335 1.91667,0.0789 0.33229,0.33229 -0.25834,0.56864 -1.3125,0.52522 -1.16495,-0.048 -1.4019,-0.28494 -0.60417,-0.60416 z m 220.6875,-3.31689 c -0.78917,-1.2769 2.52414,-1.2769 4.5,0 1.17323,0.7582 0.91378,0.97271 -1.19098,0.98469 -1.48004,0.008 -2.9691,-0.43469 -3.30902,-0.98469 z m -231,-1 c -1.63041,-0.70061 -1.68751,-0.87242 -0.30902,-0.92971 0.93004,-0.0387 1.9691,0.37971 2.30902,0.92971 0.71066,1.14988 0.67591,1.14988 -2,0 z m -5.6875,-1.68311 c 0.72187,-0.28887 1.58438,-0.25335 1.91667,0.0789 0.33229,0.33229 -0.25834,0.56864 -1.3125,0.52522 -1.16495,-0.048 -1.4019,-0.28494 -0.60417,-0.60416 z m -21.02331,-1.0583 c 3.45905,-0.19583 8.85905,-0.19422 12,0.004 3.14094,0.19781 0.31081,0.35803 -6.28919,0.35606 -6.6,-0.002 -9.16987,-0.16382 -5.71081,-0.35965 z m -8.97669,-0.9417 c 0.72187,-0.28887 1.58438,-0.25335 1.91667,0.0789 0.33229,0.33229 -0.25834,0.56864 -1.3125,0.52522 -1.16495,-0.048 -1.4019,-0.28494 -0.60417,-0.60416 z m 118.45653,-6.00988 c 0.97297,-0.25354 2.32297,-0.23687 3,0.0371 0.67703,0.27393 -0.11903,0.48137 -1.76903,0.46099 -1.65,-0.0204 -2.20394,-0.2445 -1.23097,-0.49804 z m 269.23097,-0.30701 c 0.33992,-0.55 0.81648,-1 1.05902,-1 0.24254,0 0.44098,0.45 0.44098,1 0,0.55 -0.47656,1 -1.05902,1 -0.58246,0 -0.7809,-0.45 -0.44098,-1 z m -255.71081,-0.74141 c 3.45905,-0.19583 8.85905,-0.19422 12,0.004 3.14094,0.19781 0.31081,0.35803 -6.28919,0.35606 -6.6,-0.002 -9.16987,-0.16382 -5.71081,-0.35965 z m 28.48129,-1.17306 c -0.83582,-1.3547 -0.89457,-2.19982 -0.18347,-2.63931 1.4759,-0.91215 2.12973,0.0279 1.74379,2.50708 -0.32699,2.10055 -0.34497,2.10207 -1.56032,0.13223 z m -169.27048,-1.88553 c 0,-0.99 -0.46907,-2.26907 -1.04238,-2.84238 -0.72318,-0.72318 -0.57006,-1.43437 0.5,-2.32245 1.34742,-1.11826 1.54238,-0.75897 1.54238,2.84239 0,2.26734 -0.225,4.12244 -0.5,4.12244 -0.275,0 -0.5,-0.81 -0.5,-1.8 z"
         id="path5953" />
    </g>
  </g>
</svg>
